<?xml version="1.0" encoding="UTF-8"?>
<svg xmlns="http://www.w3.org/2000/svg" xmlns:xlink="http://www.w3.org/1999/xlink" viewBox="0 0 104.31 25.57">
  <defs>
    <style>
      .cls-1 {
        fill: url(#linear-gradient-5);
      }

      .cls-2 {
        fill: url(#linear-gradient-4);
      }

      .cls-3 {
        fill: url(#linear-gradient-2);
      }

      .cls-4 {
        fill: #fff;
        mix-blend-mode: lighten;
      }

      .cls-5 {
        fill: url(#linear-gradient);
      }

      .cls-6 {
        isolation: isolate;
      }

      .cls-7 {
        fill: url(#linear-gradient-3);
      }

      .cls-7, .cls-8 {
        mix-blend-mode: overlay;
      }

      .cls-8 {
        fill: url(#linear-gradient-6);
      }

      .cls-9 {
        fill: #c77619;
      }
    </style>
    <linearGradient id="linear-gradient" x1="-2209.92" y1="140.3" x2="-2209.92" y2="113.49" gradientTransform="translate(-2117.84 105.85) rotate(174.26) scale(1 -1)" gradientUnits="userSpaceOnUse">
      <stop offset="0" stop-color="#ff9821"/>
      <stop offset=".12" stop-color="#ff9e20"/>
      <stop offset=".29" stop-color="#ffb120"/>
      <stop offset=".49" stop-color="#ffcf1f"/>
      <stop offset=".51" stop-color="#ffd21f"/>
      <stop offset=".54" stop-color="#ffd225"/>
      <stop offset=".59" stop-color="#ffd338"/>
      <stop offset=".62" stop-color="#ffd447"/>
      <stop offset=".7" stop-color="#fecd43"/>
      <stop offset=".81" stop-color="#fbba37"/>
      <stop offset=".94" stop-color="#f89c25"/>
      <stop offset=".97" stop-color="#f79320"/>
    </linearGradient>
    <linearGradient id="linear-gradient-2" x1="-2179.38" y1="-343.83" x2="-2179.38" y2="-351.26" gradientTransform="translate(-247.6 -2176.03) rotate(-90) scale(1 -1)" xlink:href="#linear-gradient"/>
    <linearGradient id="linear-gradient-3" x1="54.64" y1="-12.39" x2="59.76" y2="-8.36" gradientTransform="translate(71.53 -50.58) rotate(72.75) scale(1.04 1) skewX(1.39)" gradientUnits="userSpaceOnUse">
      <stop offset=".23" stop-color="#fff"/>
      <stop offset=".82" stop-color="#fff" stop-opacity="0"/>
    </linearGradient>
    <linearGradient id="linear-gradient-4" x1="-132.63" y1="-68.5" x2="-132.63" y2="-95.3" gradientTransform="translate(134.4 105.85) rotate(5.74)" xlink:href="#linear-gradient"/>
    <linearGradient id="linear-gradient-5" x1="-193.29" y1="299.73" x2="-193.29" y2="292.3" gradientTransform="translate(198.53 -293.54)" xlink:href="#linear-gradient"/>
    <linearGradient id="linear-gradient-6" x1="-1954.13" y1="13.21" x2="-1949" y2="17.24" gradientTransform="translate(-1926.79 -612.92) rotate(-162.75) scale(1.04 -1) skewX(1.39)" xlink:href="#linear-gradient-3"/>
  </defs>
  <g class="cls-6">
    <g id="Layer_2" data-name="Layer 2">
      <g id="Layer_1-2" data-name="Layer 1">
        <g>
          <g>
            <path class="cls-5" d="M89.25,25.57s11.2-20.56,11.19-20.71-3.67-1.72-3.67-1.72l-9.07,21.71,1.56.72Z"/>
            <g>
              <ellipse class="cls-3" cx="99.06" cy="3.35" rx="2.99" ry="5.13" transform="translate(65.34 96.56) rotate(-72.05)"/>
              <path class="cls-9" d="M94.18,1.77c-.83,3.84,7.92,6.42,9.46,3.07.71-3.62-7.88-6.66-9.46-3.07h0ZM94.18,1.77c1.71-3.76,11.02-.97,10.06,3.26-1.7,3.98-10.88.79-10.06-3.26h0Z"/>
            </g>
            <ellipse class="cls-7" cx="98.89" cy="3.29" rx="2.51" ry="4.5" transform="translate(65.27 96.35) rotate(-72.05)"/>
            <ellipse class="cls-4" cx="96.65" cy="1.3" rx="1.03" ry=".68" transform="translate(.24 8.2) rotate(-4.86)"/>
            <ellipse class="cls-4" cx="97.63" cy="2.42" rx=".44" ry=".34" transform="translate(.15 8.28) rotate(-4.86)"/>
          </g>
          <g>
            <path class="cls-2" d="M15.06,25.57S3.86,5.01,3.87,4.86s3.67-1.72,3.67-1.72l9.07,21.71-1.56.72Z"/>
            <g>
              <ellipse class="cls-1" cx="5.25" cy="3.35" rx="5.13" ry="2.99" transform="translate(-.78 1.78) rotate(-17.95)"/>
              <path class="cls-9" d="M10.13,1.77C10.95,5.82,1.77,9.01.07,5.03-.89.8,8.42-2,10.13,1.77h0ZM10.13,1.77C8.55-1.83-.05,1.22.66,4.83c1.54,3.35,10.29.77,9.46-3.07h0Z"/>
            </g>
            <ellipse class="cls-8" cx="5.43" cy="3.29" rx="4.5" ry="2.51" transform="translate(-.75 1.83) rotate(-17.95)"/>
            <ellipse class="cls-4" cx="7.66" cy="1.3" rx=".68" ry="1.03" transform="translate(5.72 8.82) rotate(-85.14)"/>
            <ellipse class="cls-4" cx="6.69" cy="2.42" rx=".34" ry=".44" transform="translate(3.71 8.88) rotate(-85.14)"/>
          </g>
        </g>
      </g>
    </g>
  </g>
</svg>