<?xml version="1.0" encoding="UTF-8"?>
<svg xmlns="http://www.w3.org/2000/svg" xmlns:xlink="http://www.w3.org/1999/xlink" viewBox="0 0 24.75 22.42">
  <defs>
    <style>
      .cls-1 {
        fill: url(#linear-gradient-5);
      }

      .cls-2 {
        fill: url(#linear-gradient-6);
      }

      .cls-3 {
        fill: url(#linear-gradient-4);
      }

      .cls-4 {
        fill: url(#linear-gradient-3);
      }

      .cls-5 {
        fill: url(#linear-gradient-2);
      }

      .cls-6 {
        fill: url(#linear-gradient);
      }

      .cls-7 {
        isolation: isolate;
      }

      .cls-8 {
        mix-blend-mode: overlay;
        opacity: .64;
      }
    </style>
    <linearGradient id="linear-gradient" x1="2.53" y1="9.51" x2="14.02" y2="15.22" gradientUnits="userSpaceOnUse">
      <stop offset=".18" stop-color="#feee64"/>
      <stop offset="1" stop-color="#fcc674"/>
    </linearGradient>
    <linearGradient id="linear-gradient-2" x1="-.56" y1="12.73" x2="19.02" y2="12.73" gradientUnits="userSpaceOnUse">
      <stop offset="0" stop-color="#ff9821"/>
      <stop offset=".12" stop-color="#ff9e20"/>
      <stop offset=".29" stop-color="#ffb120"/>
      <stop offset=".49" stop-color="#ffcf1f"/>
      <stop offset=".51" stop-color="#ffd21f"/>
      <stop offset=".54" stop-color="#ffd225"/>
      <stop offset=".59" stop-color="#ffd338"/>
      <stop offset=".62" stop-color="#ffd447"/>
      <stop offset=".7" stop-color="#fecd43"/>
      <stop offset=".81" stop-color="#fbba37"/>
      <stop offset=".94" stop-color="#f89c25"/>
      <stop offset=".97" stop-color="#f79320"/>
    </linearGradient>
    <linearGradient id="linear-gradient-3" x1="9.34" y1="8.91" x2="9.1" y2="17.72" gradientUnits="userSpaceOnUse">
      <stop offset=".23" stop-color="#fff"/>
      <stop offset=".63" stop-color="#fff" stop-opacity="0"/>
    </linearGradient>
    <linearGradient id="linear-gradient-4" x1="17.16" y1="3.17" x2="22.85" y2="6" xlink:href="#linear-gradient"/>
    <linearGradient id="linear-gradient-5" x1="15.63" y1="4.76" x2="25.32" y2="4.76" xlink:href="#linear-gradient-2"/>
    <linearGradient id="linear-gradient-6" x1="20.53" y1="2.88" x2="20.41" y2="7.24" xlink:href="#linear-gradient-3"/>
  </defs>
  <g class="cls-7">
    <g id="Layer_2" data-name="Layer 2">
      <g id="Layer_1-2" data-name="Layer 1">
        <g>
          <g>
            <path class="cls-6" d="M17.84,12.84c-6.46,1.19-7.42,2.15-8.61,8.61-1.19-6.46-2.15-7.42-8.61-8.61,6.46-1.19,7.42-2.15,8.61-8.61,1.19,6.46,2.15,7.42,8.61,8.61Z"/>
            <path class="cls-5" d="M17.86,12.84c-1.11.27-2.24.52-3.3.86-1.07.34-2.1.82-2.89,1.59-.76.79-1.2,1.84-1.51,2.91-.31,1.08-.54,2.18-.76,3.29l-.18.95-.17-.95c-.2-1.11-.39-2.23-.69-3.31-.3-1.08-.74-2.14-1.52-2.95-.79-.79-1.87-1.24-2.94-1.55-1.08-.31-2.2-.52-3.31-.72l-.6-.11.6-.12c1.11-.23,2.21-.46,3.28-.79,1.06-.33,2.1-.8,2.87-1.56.75-.79,1.19-1.82,1.51-2.89.31-1.07.54-2.18.75-3.29l.22-1.16.21,1.16c.2,1.11.43,2.21.73,3.29.3,1.07.74,2.12,1.49,2.92.78.78,1.82,1.25,2.89,1.59,1.06.34,2.19.59,3.3.85ZM17.82,12.84c-1.11-.15-2.21-.34-3.32-.65-1.09-.31-2.19-.76-3.05-1.57-.84-.83-1.32-1.93-1.66-3.02-.34-1.1-.56-2.22-.77-3.33h.43c-.21,1.12-.42,2.24-.76,3.33-.33,1.09-.81,2.2-1.65,3.05-.86.83-1.97,1.28-3.06,1.59-1.1.31-2.22.51-3.34.71v-.23c1.11.22,2.22.45,3.31.79,1.08.34,2.16.81,3,1.6.81.83,1.29,1.91,1.64,2.99.34,1.09.59,2.2.81,3.31h-.35c.21-1.11.41-2.24.75-3.33.33-1.09.81-2.19,1.64-3.03.85-.82,1.96-1.26,3.05-1.57,1.11-.3,2.21-.49,3.32-.64Z"/>
          </g>
          <g class="cls-8">
            <path class="cls-4" d="M15.76,12.84c-4.9.9-5.63,1.63-6.53,6.53-.9-4.9-1.63-5.63-6.53-6.53,4.9-.9,5.63-1.63,6.53-6.53.9,4.9,1.63,5.63,6.53,6.53Z"/>
          </g>
        </g>
        <g>
          <g>
            <path class="cls-3" d="M24.74,4.82c-3.2.59-3.67,1.07-4.26,4.26-.59-3.2-1.07-3.67-4.26-4.26,3.2-.59,3.67-1.07,4.26-4.26.59,3.2,1.07,3.67,4.26,4.26Z"/>
            <path class="cls-1" d="M24.75,4.82c-.55.13-1.11.26-1.63.42-.53.16-1.05.4-1.43.78-.38.4-.59.92-.74,1.44-.15.53-.27,1.08-.38,1.63l-.08.42-.08-.42c-.1-.55-.2-1.1-.35-1.64-.15-.53-.37-1.06-.75-1.46-.39-.4-.92-.62-1.45-.77-.54-.15-1.09-.26-1.64-.36l-.28-.05.28-.06c1.07-.24,2.25-.42,3.05-1.16.38-.39.6-.9.75-1.43.16-.53.26-1.08.37-1.63l.1-.54.1.54c.1.55.22,1.1.37,1.63.15.53.36,1.05.74,1.44.38.39.9.62,1.43.78.53.17,1.08.29,1.63.42ZM24.73,4.82c-.55-.08-1.09-.17-1.64-.32-.54-.15-1.08-.37-1.51-.78-.41-.41-.65-.96-.82-1.49-.17-.54-.27-1.1-.38-1.65h.2c-.11.55-.22,1.1-.38,1.65-.16.54-.4,1.09-.81,1.51-.42.41-.97.64-1.51.79-.55.15-1.1.25-1.65.35v-.11c.55.11,1.1.22,1.64.39.54.17,1.07.4,1.49.79.41.41.64.94.81,1.48.17.54.28,1.09.39,1.64h-.16c.1-.55.19-1.11.36-1.65.17-.54.41-1.08.82-1.49.42-.4.97-.63,1.51-.78.55-.15,1.09-.24,1.64-.32Z"/>
          </g>
          <g class="cls-8">
            <path class="cls-2" d="M23.71,4.82c-2.43.45-2.79.81-3.23,3.23-.45-2.43-.81-2.79-3.23-3.23,2.43-.45,2.79-.81,3.23-3.23.45,2.43.81,2.79,3.23,3.23Z"/>
          </g>
        </g>
      </g>
    </g>
  </g>
</svg>