<?xml version="1.0" encoding="UTF-8"?>
<svg xmlns="http://www.w3.org/2000/svg" xmlns:xlink="http://www.w3.org/1999/xlink" viewBox="0 0 33.64 30.31">
  <defs>
    <style>
      .cls-1 {
        fill: url(#linear-gradient-5);
      }

      .cls-2 {
        fill: url(#linear-gradient-6);
      }

      .cls-3 {
        fill: url(#linear-gradient-4);
      }

      .cls-4 {
        fill: url(#linear-gradient-3);
      }

      .cls-5 {
        fill: url(#linear-gradient-2);
      }

      .cls-6 {
        fill: url(#linear-gradient);
      }

      .cls-7 {
        isolation: isolate;
      }

      .cls-8 {
        mix-blend-mode: overlay;
        opacity: .64;
      }
    </style>
    <linearGradient id="linear-gradient" x1="3.9" y1="9.97" x2="21.58" y2="18.75" gradientUnits="userSpaceOnUse">
      <stop offset=".18" stop-color="#feee64"/>
      <stop offset="1" stop-color="#fcc674"/>
    </linearGradient>
    <linearGradient id="linear-gradient-2" x1="-.86" y1="14.92" x2="29.26" y2="14.92" gradientUnits="userSpaceOnUse">
      <stop offset="0" stop-color="#ff9821"/>
      <stop offset=".12" stop-color="#ff9e20"/>
      <stop offset=".29" stop-color="#ffb120"/>
      <stop offset=".49" stop-color="#ffcf1f"/>
      <stop offset=".51" stop-color="#ffd21f"/>
      <stop offset=".54" stop-color="#ffd225"/>
      <stop offset=".59" stop-color="#ffd338"/>
      <stop offset=".62" stop-color="#ffd447"/>
      <stop offset=".7" stop-color="#fecd43"/>
      <stop offset=".81" stop-color="#fbba37"/>
      <stop offset=".94" stop-color="#f89c25"/>
      <stop offset=".97" stop-color="#f79320"/>
    </linearGradient>
    <linearGradient id="linear-gradient-3" x1="14.37" y1="9.04" x2="14" y2="22.6" gradientUnits="userSpaceOnUse">
      <stop offset=".23" stop-color="#fff"/>
      <stop offset=".63" stop-color="#fff" stop-opacity="0"/>
    </linearGradient>
    <linearGradient id="linear-gradient-4" x1="26.52" y1="23.16" x2="31.84" y2="25.8" xlink:href="#linear-gradient"/>
    <linearGradient id="linear-gradient-5" x1="23.81" y1="24.57" x2="35.43" y2="24.57" xlink:href="#linear-gradient-2"/>
    <linearGradient id="linear-gradient-6" x1="29.51" y1="20.69" x2="29.7" y2="27.63" xlink:href="#linear-gradient-3"/>
  </defs>
  <g class="cls-7">
    <g id="Layer_2" data-name="Layer 2">
      <g id="Layer_1-2" data-name="Layer 1">
        <g>
          <g>
            <path class="cls-6" d="M27.44,15.09c-9.93,1.83-11.41,3.31-13.24,13.24-1.83-9.93-3.31-11.41-13.24-13.24,9.93-1.83,11.41-3.31,13.24-13.24,1.83,9.93,3.31,11.41,13.24,13.24Z"/>
            <path class="cls-5" d="M27.48,15.09l-2.57.62c-.85.2-1.68.45-2.5.7-1.64.52-3.24,1.25-4.44,2.44-1.17,1.22-1.85,2.83-2.33,4.47-.47,1.65-.84,3.35-1.17,5.06l-.28,1.46-.26-1.46c-.3-1.71-.6-3.42-1.06-5.09-.46-1.66-1.13-3.3-2.33-4.54-1.22-1.22-2.87-1.91-4.52-2.4-1.66-.49-3.38-.79-5.09-1.09l-.93-.16.93-.19c1.7-.35,3.41-.71,5.05-1.22,1.64-.52,3.23-1.23,4.42-2.4,1.16-1.21,1.84-2.81,2.32-4.45.47-1.65.83-3.35,1.15-5.05l.34-1.79.33,1.79c.31,1.71.66,3.41,1.12,5.06.47,1.65,1.13,3.26,2.29,4.49,1.2,1.2,2.8,1.92,4.45,2.44,1.63.52,3.37.9,5.08,1.31ZM27.41,15.09c-.9-.15-1.67-.22-2.55-.41-.86-.16-1.71-.35-2.56-.59-1.68-.48-3.37-1.16-4.69-2.41-1.28-1.28-2.03-2.97-2.56-4.64-.53-1.68-.85-3.41-1.19-5.12h.67c-.33,1.72-.65,3.44-1.16,5.13-.51,1.68-1.25,3.38-2.53,4.69-1.32,1.28-3.03,1.97-4.71,2.45-1.69.48-3.41.79-5.13,1.09v-.35c1.71.35,3.42.72,5.09,1.22,1.66.51,3.32,1.23,4.61,2.46,1.25,1.27,1.99,2.93,2.52,4.59.53,1.67.9,3.39,1.25,5.1h-.54c.32-1.71.63-3.44,1.15-5.13.51-1.67,1.25-3.37,2.52-4.66,1.31-1.26,3.02-1.94,4.7-2.41.84-.24,1.7-.43,2.56-.58.88-.19,1.65-.26,2.55-.41Z"/>
          </g>
          <g class="cls-8">
            <path class="cls-4" d="M24.25,15.09c-7.54,1.39-8.66,2.51-10.05,10.05-1.39-7.54-2.51-8.66-10.05-10.05,7.54-1.39,8.66-2.51,10.05-10.05,1.39,7.54,2.51,8.66,10.05,10.05Z"/>
          </g>
        </g>
        <g>
          <g>
            <path class="cls-3" d="M33.61,24.7c-2.99.55-3.44,1-3.99,3.99-.55-2.99-1-3.44-3.99-3.99,2.99-.55,3.44-1,3.99-3.99.55,2.99,1,3.44,3.99,3.99Z"/>
            <path class="cls-1" d="M33.64,24.7c-.2.08-.56.2-.78.26-.25.08-.49.17-.74.25-.48.17-.92.41-1.25.74-.31.34-.5.8-.63,1.28-.13.49-.26.99-.36,1.5l-.31,1.57-.23-1.57c-.07-.52-.14-1.03-.26-1.53-.11-.5-.29-.98-.64-1.35-.34-.37-.83-.56-1.33-.7-.5-.15-1.02-.21-1.53-.28l-.85-.13.85-.23c.99-.27,2.08-.48,2.72-1.12.6-.67.74-1.75.95-2.75l.39-1.82.3,1.82c.08.51.19,1.02.31,1.51.12.49.3.94.61,1.29.32.33.76.58,1.24.75.47.18,1.01.32,1.52.51ZM33.57,24.7c-.3-.03-.48,0-.76-.05-.26-.03-.53-.07-.79-.14-.52-.12-1.07-.31-1.51-.71-.43-.41-.68-.95-.85-1.47-.18-.52-.28-1.04-.39-1.56h.69c-.1.52-.2,1.05-.37,1.57-.17.52-.41,1.07-.84,1.5-.44.42-1,.63-1.52.76-.53.14-1.05.2-1.58.28v-.35c.51.12,1.02.26,1.53.41.5.16,1.01.39,1.42.76.39.39.64.9.83,1.4.18.51.32,1.02.44,1.54h-.54c.09-.52.17-1.05.34-1.57.17-.51.41-1.05.83-1.47.44-.41.99-.59,1.5-.72.26-.07.53-.11.79-.14.29-.06.45-.02.76-.05Z"/>
          </g>
          <path class="cls-2" d="M32.24,24.7c-1.96.36-2.26.65-2.62,2.62-.36-1.96-.65-2.26-2.62-2.62,1.96-.36,2.26-.65,2.62-2.62.36,1.96.65,2.26,2.62,2.62Z"/>
        </g>
      </g>
    </g>
  </g>
</svg>