<?xml version="1.0" encoding="UTF-8"?>
<svg xmlns="http://www.w3.org/2000/svg" xmlns:xlink="http://www.w3.org/1999/xlink" viewBox="0 0 24.71 28.15">
  <defs>
    <style>
      .cls-1 {
        fill: url(#linear-gradient-5);
      }

      .cls-2 {
        fill: url(#linear-gradient-6);
      }

      .cls-3 {
        fill: url(#linear-gradient-4);
      }

      .cls-4 {
        fill: url(#linear-gradient-3);
      }

      .cls-5 {
        fill: url(#linear-gradient-2);
      }

      .cls-6 {
        fill: url(#linear-gradient);
      }

      .cls-7 {
        isolation: isolate;
      }

      .cls-8 {
        mix-blend-mode: overlay;
        opacity: .64;
      }
    </style>
    <linearGradient id="linear-gradient" x1="3.01" y1="12.83" x2="16.65" y2="19.6" gradientUnits="userSpaceOnUse">
      <stop offset=".18" stop-color="#feee64"/>
      <stop offset="1" stop-color="#fcc674"/>
    </linearGradient>
    <linearGradient id="linear-gradient-2" x1="-.67" y1="16.64" x2="22.57" y2="16.64" gradientUnits="userSpaceOnUse">
      <stop offset="0" stop-color="#ff9821"/>
      <stop offset=".12" stop-color="#ff9e20"/>
      <stop offset=".29" stop-color="#ffb120"/>
      <stop offset=".49" stop-color="#ffcf1f"/>
      <stop offset=".51" stop-color="#ffd21f"/>
      <stop offset=".54" stop-color="#ffd225"/>
      <stop offset=".59" stop-color="#ffd338"/>
      <stop offset=".62" stop-color="#ffd447"/>
      <stop offset=".7" stop-color="#fecd43"/>
      <stop offset=".81" stop-color="#fbba37"/>
      <stop offset=".94" stop-color="#f89c25"/>
      <stop offset=".97" stop-color="#f79320"/>
    </linearGradient>
    <linearGradient id="linear-gradient-3" x1="11.08" y1="12.11" x2="10.8" y2="22.57" gradientUnits="userSpaceOnUse">
      <stop offset=".23" stop-color="#fff"/>
      <stop offset=".63" stop-color="#fff" stop-opacity="0"/>
    </linearGradient>
    <linearGradient id="linear-gradient-4" x1="16.94" y1="4.73" x2="22.75" y2="7.61" xlink:href="#linear-gradient"/>
    <linearGradient id="linear-gradient-5" x1="13.98" y1="6.21" x2="26.66" y2="6.21" xlink:href="#linear-gradient-2"/>
    <linearGradient id="linear-gradient-6" x1="20.2" y1="2.03" x2="20.41" y2="9.61" xlink:href="#linear-gradient-3"/>
  </defs>
  <g class="cls-7">
    <g id="Layer_2" data-name="Layer 2">
      <g id="Layer_1-2" data-name="Layer 1">
        <g>
          <g>
            <path class="cls-6" d="M21.17,16.77c-7.66,1.41-8.81,2.55-10.22,10.22-1.41-7.66-2.55-8.81-10.22-10.22,7.66-1.41,8.81-2.55,10.22-10.22,1.41,7.66,2.55,8.81,10.22,10.22Z"/>
            <path class="cls-5" d="M21.2,16.77c-1.32.32-2.66.62-3.92,1.02-1.27.4-2.5.97-3.42,1.88-.9.94-1.43,2.18-1.8,3.45-.37,1.28-.65,2.59-.9,3.9l-.22,1.12-.2-1.12c-.23-1.32-.46-2.64-.82-3.93-.35-1.28-.87-2.54-1.8-3.5-.94-.94-2.21-1.47-3.49-1.84-1.29-.37-2.61-.61-3.93-.85l-.71-.13.71-.15c1.31-.27,2.63-.55,3.9-.94,1.26-.4,2.49-.95,3.41-1.85.89-.93,1.42-2.17,1.79-3.43.37-1.27.64-2.58.89-3.9l.26-1.38.25,1.38c.24,1.32.51,2.63.87,3.91.36,1.27.87,2.51,1.77,3.46.92.92,2.16,1.48,3.43,1.88,1.26.4,2.6.69,3.92,1.01ZM21.15,16.77c-1.32-.18-2.62-.41-3.94-.77-1.29-.37-2.6-.9-3.62-1.86-.99-.99-1.57-2.29-1.97-3.58-.41-1.3-.66-2.63-.92-3.95h.52c-.25,1.32-.5,2.65-.9,3.96-.4,1.29-.96,2.61-1.96,3.62-1.02.98-2.34,1.52-3.64,1.89-1.31.37-2.63.61-3.96.84v-.27c1.32.26,2.64.54,3.93.93,1.28.4,2.56.96,3.56,1.9.96.98,1.53,2.26,1.94,3.55.41,1.29.7,2.61.96,3.93h-.41c.25-1.32.49-2.65.89-3.96.4-1.29.96-2.6,1.95-3.6,1.01-.97,2.33-1.49,3.62-1.86,1.32-.36,2.62-.58,3.94-.77Z"/>
          </g>
          <g class="cls-8">
            <path class="cls-4" d="M18.71,16.77c-5.82,1.07-6.68,1.94-7.76,7.76-1.07-5.82-1.94-6.68-7.76-7.76,5.82-1.07,6.68-1.94,7.76-7.76,1.07,5.82,1.94,6.68,7.76,7.76Z"/>
          </g>
        </g>
        <g>
          <g>
            <path class="cls-3" d="M24.68,6.41c-3.27.6-3.75,1.09-4.35,4.35-.6-3.27-1.09-3.75-4.35-4.35,3.27-.6,3.75-1.09,4.35-4.35.6,3.27,1.09,3.75,4.35,4.35Z"/>
            <path class="cls-1" d="M24.71,6.41c-.22.08-.61.22-.85.29-.27.08-.54.18-.8.27-.53.19-1.01.45-1.36.81-.34.37-.55.87-.69,1.4-.14.53-.26,1.08-.39,1.64l-.37,1.61-.22-1.61c-.08-.56-.15-1.13-.28-1.67-.12-.54-.31-1.07-.69-1.48-.38-.39-.92-.61-1.46-.76-.54-.16-1.11-.22-1.67-.31l-.99-.15.99-.24c.55-.13,1.1-.29,1.63-.46.52-.18,1-.42,1.35-.76.66-.73.81-1.92,1.04-3.01l.42-1.99.33,1.99c.09.56.2,1.11.33,1.64.14.53.33,1.03.66,1.4.34.37.83.63,1.36.82.26.09.53.19.8.27.25.07.63.2.85.28ZM24.64,6.41c-.34-.03-.52,0-.83-.06-.29-.04-.57-.08-.86-.15-.56-.14-1.17-.33-1.65-.77-.47-.45-.74-1.04-.93-1.6-.19-.57-.3-1.14-.43-1.71h.75c-.11.57-.22,1.14-.4,1.71-.18.57-.44,1.16-.92,1.63-.48.46-1.09.68-1.66.83-.57.15-1.15.22-1.72.3v-.39c.56.13,1.12.29,1.68.45.55.18,1.1.42,1.55.84.43.42.7.98.91,1.53.2.55.35,1.12.48,1.68h-.59c.09-.57.19-1.14.37-1.71.18-.56.44-1.15.9-1.61.48-.44,1.08-.64,1.64-.78.28-.07.57-.11.86-.15.31-.06.49-.02.83-.05Z"/>
          </g>
          <path class="cls-2" d="M23.18,6.41c-2.14.39-2.46.71-2.86,2.86-.39-2.14-.71-2.46-2.86-2.86,2.14-.39,2.46-.71,2.86-2.86.39,2.14.71,2.46,2.86,2.86Z"/>
        </g>
      </g>
    </g>
  </g>
</svg>