<?xml version="1.0" encoding="UTF-8"?>
<svg xmlns="http://www.w3.org/2000/svg" xmlns:xlink="http://www.w3.org/1999/xlink" viewBox="0 0 41.43 25.7">
  <defs>
    <style>
      .cls-1 {
        fill: url(#linear-gradient-3);
      }

      .cls-2 {
        fill: #fff;
      }

      .cls-2, .cls-3, .cls-4, .cls-5 {
        mix-blend-mode: overlay;
      }

      .cls-6 {
        fill: url(#linear-gradient);
      }

      .cls-7 {
        isolation: isolate;
      }

      .cls-3 {
        fill: #151515;
        opacity: .71;
      }

      .cls-4 {
        fill: url(#linear-gradient-2);
      }

      .cls-5 {
        fill: url(#linear-gradient-4);
      }

      .cls-8 {
        fill: #e08114;
      }
    </style>
    <linearGradient id="linear-gradient" x1="29.97" y1="2.75" x2="30.58" y2="19.16" gradientUnits="userSpaceOnUse">
      <stop offset=".18" stop-color="#feee64"/>
      <stop offset="1" stop-color="#fcc674"/>
    </linearGradient>
    <linearGradient id="linear-gradient-2" x1="35.19" y1="3.71" x2="28.12" y2="13.02" gradientUnits="userSpaceOnUse">
      <stop offset=".23" stop-color="#fff"/>
      <stop offset=".84" stop-color="#fff" stop-opacity="0"/>
    </linearGradient>
    <linearGradient id="linear-gradient-3" x1="9.98" y1="9.55" x2="10.51" y2="23.77" xlink:href="#linear-gradient"/>
    <linearGradient id="linear-gradient-4" x1="9.8" y1="11.66" x2="10.72" y2="20.64" xlink:href="#linear-gradient-2"/>
  </defs>
  <g class="cls-7">
    <g id="Layer_2" data-name="Layer 2">
      <g id="Layer_1-2" data-name="Layer 1">
        <g>
          <g>
            <g>
              <path class="cls-6" d="M30.66,20.74c-5.42-.25-11.18-5.57-11-10.17.19-4.8,5.19-10.05,7.22-10.05.17,0,.33.03.47.1.04.02.08.05.13.09.9.55,1.2,1.99,1.44,3.15.07.31.15.73.22.92.44-.03,1.17-.28,1.88-.54,1.08-.38,2.31-.82,3.3-.82.45,0,.81.08,1.12.26,1.27.71.74,2.6.28,4.26-.2.72-.45,1.6-.41,2.03.02,0,.04,0,.06,0,.26,0,.66-.06,1.09-.11.58-.08,1.25-.17,1.88-.17.45,0,1.82,0,2.37,1.1.08.15.15.35.19.55.16.89-1.04,3.21-2.68,5.18-1.32,1.58-4.02,4.23-7.28,4.23-.09,0-.18,0-.28,0Z"/>
              <path class="cls-8" d="M26.88,1.03c.09,0,.17.02.24.05.03.01.05.02.06.05,1.17.69,1.2,3.85,1.65,4.1.08.04.18.06.31.06,1.04,0,3.56-1.35,5.19-1.35.33,0,.63.06.86.19,1.55.86-.82,4.96-.32,6.19.05.13.24.17.51.17.68,0,1.9-.29,2.97-.29.84,0,1.59.18,1.91.81.06.11.11.25.14.4.23,1.28-4.2,8.82-9.46,8.82-.08,0-.17,0-.25,0-5.37-.25-10.67-5.46-10.51-9.63.19-4.67,5.12-9.56,6.71-9.56M26.88,0c-2.24,0-7.53,5.4-7.74,10.55-.19,4.93,5.71,10.44,11.49,10.7.1,0,.2,0,.3,0,3.47,0,6.3-2.77,7.68-4.42,1.26-1.51,3.04-4.25,2.79-5.61-.04-.24-.13-.49-.25-.71-.44-.88-1.39-1.34-2.81-1.34-.67,0-1.35.09-1.95.18-.18.02-.36.05-.52.07.08-.4.23-.93.34-1.34.49-1.76,1.1-3.95-.53-4.85-.37-.21-.84-.32-1.37-.32-1.08,0-2.35.45-3.48.85-.44.16-.96.34-1.34.44-.03-.15-.07-.31-.1-.44-.26-1.22-.57-2.73-1.59-3.43-.07-.06-.16-.12-.25-.16-.22-.11-.45-.16-.7-.16h0Z"/>
            </g>
            <path class="cls-3" d="M28.17,13.66c-6.21-1.51-6.65-6.21-4.15-9.7-.77.67-1.8,1.82-2.53,3.68-1.32,3.35.02,7.06,3.75,9.75,3.73,2.69,7.3,2.27,10.51-.24,2.52-1.97,3.49-4.56,3.79-5.59-2.58,1.85-6.37,3.32-11.36,2.11Z"/>
            <path class="cls-4" d="M21.13,8.71s.44-1.96,1.81-3.66,2.93-3.23,3.69-3.11.93,2.22,1.32,3.2.83.83,2.1.4,4.06-1.68,4.75-.67-.38,3.33-.49,4.78.67,1.48,2.35,1.22,2.86-.46,3.02.16-1.76,5.12-4.84,6.76-4.72,1.48-4.72,1.48"/>
            <ellipse class="cls-2" cx="31.25" cy="5.94" rx="1.26" ry=".83" transform="translate(-.39 9.18) rotate(-16.61)"/>
            <ellipse class="cls-2" cx="32.87" cy="6.57" rx=".56" ry=".4" transform="translate(-.51 9.67) rotate(-16.61)"/>
          </g>
          <g>
            <g>
              <path class="cls-1" d="M9.5,25.18c-2.51,0-4.69-.75-5.98-2.05C.5,20.09.06,14.21.84,12.15c.2-.49.44-.78.76-.89.17-.06.37-.1.58-.1.89,0,1.9.61,2.71,1.11.26.16.6.36.78.44.21-.23.57-1.07.81-1.64.63-1.46,1.34-3.1,2.49-3.48.14-.04.28-.06.42-.06.11,0,.23.01.34.04.98.24,1.71,1.44,2.42,2.61.35.57.81,1.33,1.13,1.59.17-.17.44-.56.65-.86.76-1.09,1.71-2.44,2.97-2.44.33,0,.66.1.97.29.78.5,1.66,3.07,1.93,5.61.2,1.94.21,5.51-2.02,7.69-1.99,1.95-5.09,3.12-8.28,3.12Z"/>
              <path class="cls-8" d="M9.39,8.05c.08,0,.15,0,.23.03,1.4.34,2.56,3.87,3.62,4.26.02,0,.04.01.06.01.66,0,1.99-3.36,3.6-3.36.23,0,.46.07.69.21,1.06.67,3.49,8.92-.17,12.5-2.03,1.99-5.11,2.97-7.92,2.97-2.27,0-4.36-.64-5.61-1.89C1.04,19.91.61,14.21,1.32,12.34c.12-.31.27-.52.45-.59.12-.05.26-.07.4-.07,1.23,0,3.03,1.58,3.55,1.58.02,0,.04,0,.06,0,.89-.3,1.74-4.64,3.35-5.16.09-.03.17-.04.26-.04M9.39,7.02c-.19,0-.38.03-.56.08-1.38.45-2.15,2.21-2.82,3.77-.15.35-.36.83-.53,1.16-.11-.07-.23-.14-.33-.2-.87-.53-1.95-1.18-2.98-1.18-.27,0-.53.05-.77.14-.44.16-.79.54-1.04,1.17C-.47,14.14-.01,20.31,3.16,23.5c1.38,1.4,3.7,2.2,6.34,2.2,3.33,0,6.56-1.22,8.64-3.26,1.76-1.72,2.53-4.6,2.17-8.11-.25-2.4-1.09-5.31-2.16-5.99-.4-.25-.81-.37-1.24-.37-1.52,0-2.6,1.54-3.39,2.66-.08.11-.16.23-.25.35-.22-.31-.47-.73-.67-1.05-.77-1.26-1.56-2.56-2.74-2.84-.16-.04-.32-.06-.47-.06h0Z"/>
            </g>
            <path class="cls-3" d="M16.84,10.17c-1.16-.17-2.83,3.27-3.31,3.35-.48.08-.76-.28-2.05-2.38-.35-.57-.63-.89-.85-1.05.3.69.61,1.46.9,2.36,2.15,6.46-5.39,10.68-9.1,5.42-.16-.22-.27-.49-.39-.74.44,2.05,1.7,5.57,5.25,6.48,5.08,1.3,9.89-1.28,10.98-4.79,1.09-3.51-.28-8.49-1.44-8.67Z"/>
            <path class="cls-5" d="M3.12,20.24s-1.08-2.07-1.4-4.89.13-3.13.75-3.04,2.57,1.76,3.36,1.65c1.45-.2,2.31-5.76,3.54-5.36s2.51,3.56,3.43,4.49,1.02.07,2.03-1.26,1.79-2.47,2.7-1.25,2.29,8.55-1.12,10.75"/>
            <ellipse class="cls-2" cx="17.13" cy="11.53" rx=".83" ry="1.26" transform="translate(-2.74 5.92) rotate(-18.18)"/>
            <ellipse class="cls-2" cx="16.55" cy="13.17" rx=".4" ry=".56" transform="translate(-3.28 5.82) rotate(-18.18)"/>
          </g>
        </g>
      </g>
    </g>
  </g>
</svg>