<?xml version="1.0" encoding="UTF-8"?>
<svg xmlns="http://www.w3.org/2000/svg" xmlns:xlink="http://www.w3.org/1999/xlink" viewBox="0 0 34.33 37.74">
  <defs>
    <style>
      .cls-1 {
        fill: url(#radial-gradient-5);
      }

      .cls-2 {
        fill: url(#radial-gradient-4);
      }

      .cls-3 {
        fill: url(#radial-gradient-3);
      }

      .cls-4 {
        fill: url(#radial-gradient-2);
      }

      .cls-5 {
        fill: url(#linear-gradient-7);
      }

      .cls-6 {
        fill: url(#linear-gradient-9);
      }

      .cls-7 {
        fill: url(#radial-gradient);
      }

      .cls-8 {
        isolation: isolate;
      }

      .cls-9 {
        fill: #c5c8d9;
      }

      .cls-10 {
        fill: url(#linear-gradient);
      }

      .cls-10, .cls-11, .cls-12, .cls-13, .cls-14, .cls-15, .cls-16, .cls-17 {
        mix-blend-mode: overlay;
      }

      .cls-11 {
        fill: url(#linear-gradient-8);
      }

      .cls-12 {
        fill: url(#linear-gradient-2);
      }

      .cls-13 {
        fill: url(#linear-gradient-3);
      }

      .cls-14 {
        fill: url(#linear-gradient-4);
      }

      .cls-15 {
        fill: url(#linear-gradient-6);
      }

      .cls-16 {
        fill: url(#linear-gradient-5);
      }

      .cls-18 {
        fill: #fff;
      }

      .cls-19 {
        fill: #eb8b1d;
      }

      .cls-20 {
        fill: #b85a17;
      }
    </style>
    <radialGradient id="radial-gradient" cx="25.19" cy="168.34" fx="25.19" fy="168.34" r="14.51" gradientTransform="translate(-33.44 -143.61) rotate(-8.87)" gradientUnits="userSpaceOnUse">
      <stop offset=".11" stop-color="#f9f8ff"/>
      <stop offset="1" stop-color="#e4e5ed"/>
    </radialGradient>
    <radialGradient id="radial-gradient-2" cx="-20.62" cy="414.74" fx="-20.62" fy="414.74" r="30.85" gradientTransform="translate(-142.61 -374.27) rotate(-24.3)" gradientUnits="userSpaceOnUse">
      <stop offset=".18" stop-color="#fce053"/>
      <stop offset=".5" stop-color="#f9c04c"/>
      <stop offset="1" stop-color="#f79342"/>
    </radialGradient>
    <radialGradient id="radial-gradient-3" cx="-24.85" cy="447.32" fx="-24.85" fy="447.32" r="28.95" gradientTransform="translate(-142.61 -374.27) rotate(-24.3)" gradientUnits="userSpaceOnUse">
      <stop offset=".18" stop-color="#fcdb32"/>
      <stop offset=".55" stop-color="#f9b12d"/>
      <stop offset="1" stop-color="#f78428"/>
    </radialGradient>
    <linearGradient id="linear-gradient" x1="29.25" y1="181.35" x2="25.98" y2="173.65" gradientTransform="translate(-33.44 -143.61) rotate(-8.87)" gradientUnits="userSpaceOnUse">
      <stop offset=".23" stop-color="#fff"/>
      <stop offset=".82" stop-color="#fff" stop-opacity="0"/>
    </linearGradient>
    <linearGradient id="linear-gradient-2" x1="29.26" y1="138.95" x2="22.66" y2="173.08" xlink:href="#linear-gradient"/>
    <linearGradient id="linear-gradient-3" x1="22.76" y1="156.1" x2="24.09" y2="166.47" gradientTransform="translate(-33.44 -143.61) rotate(-8.87)" gradientUnits="userSpaceOnUse">
      <stop offset=".23" stop-color="#fff"/>
      <stop offset=".3" stop-color="#fff" stop-opacity=".87"/>
      <stop offset=".49" stop-color="#fff" stop-opacity=".5"/>
      <stop offset=".65" stop-color="#fff" stop-opacity=".23"/>
      <stop offset=".76" stop-color="#fff" stop-opacity=".06"/>
      <stop offset=".82" stop-color="#fff" stop-opacity="0"/>
    </linearGradient>
    <linearGradient id="linear-gradient-4" x1="-136.65" y1="677.02" x2="-139.03" y2="681.22" gradientTransform="translate(154.08 -667.47)" xlink:href="#linear-gradient-3"/>
    <linearGradient id="linear-gradient-5" x1="-135.49" y1="677.68" x2="-137.86" y2="681.88" gradientTransform="translate(154.42 -668.38)" xlink:href="#linear-gradient-3"/>
    <radialGradient id="radial-gradient-4" cx="21.35" cy="155.27" fx="21.35" fy="155.27" r="8.85" gradientTransform="translate(-33.44 -143.61) rotate(-8.87)" gradientUnits="userSpaceOnUse">
      <stop offset=".18" stop-color="#fcbe5f"/>
      <stop offset=".46" stop-color="#f1a555"/>
      <stop offset="1" stop-color="#df7744"/>
    </radialGradient>
    <linearGradient id="linear-gradient-6" x1="26.73" y1="150.8" x2="14.53" y2="171.22" gradientTransform="translate(-33.44 -143.61) rotate(-8.87)" gradientUnits="userSpaceOnUse">
      <stop offset=".23" stop-color="#fff"/>
      <stop offset=".63" stop-color="#fff" stop-opacity="0"/>
    </linearGradient>
    <linearGradient id="linear-gradient-7" x1=".54" y1="8.24" x2="22.64" y2="4.79" gradientTransform="matrix(1,0,0,1,0,0)" xlink:href="#linear-gradient-6"/>
    <radialGradient id="radial-gradient-5" cx="28.56" cy="181.41" fx="28.56" fy="181.41" r="8.85" xlink:href="#radial-gradient-4"/>
    <linearGradient id="linear-gradient-8" x1="33.58" y1="178.78" x2="27.68" y2="189.55" xlink:href="#linear-gradient-6"/>
    <linearGradient id="linear-gradient-9" x1="11.69" y1="32.95" x2="33.79" y2="29.5" gradientTransform="matrix(1,0,0,1,0,0)" xlink:href="#linear-gradient-6"/>
  </defs>
  <g class="cls-8">
    <g id="Layer_2" data-name="Layer 2">
      <g id="Layer_1-2" data-name="Layer 1">
        <g>
          <g>
            <g>
              <path class="cls-7" d="M14.65,35.06c-.9,0-1.73-.52-2.11-1.31l-.06-.12c-.03-.06-.06-.13-.09-.2-1.81-4-.9-8.78,2.27-11.87.41-.41.52-1.05.28-1.59l-.04-.11c-.23-.5-.73-.82-1.27-.82h-.11c-.27.02-.53.03-.8.03-4.12,0-7.89-2.42-9.6-6.17-.01-.02-.03-.06-.03-.06-.58-1.31.03-2.86,1.37-3.46l4.95-2.24,9.41-4.24c.35-.16.73-.24,1.12-.24,1.01,0,1.93.57,2.35,1.45.02.02.03.05.04.07,1.67,3.72,1.04,8.13-1.62,11.22-.2.24-.4.46-.64.68-.42.4-.54,1.03-.29,1.58l.04.11c.23.5.73.83,1.27.83h.1c.27-.03.55-.04.82-.04,4.13,0,7.9,2.43,9.6,6.2l.13.31c.49,1.18-.05,2.52-1.21,3.05l-14.91,6.73c-.31.14-.64.21-.98.21Z"/>
              <path class="cls-19" d="M19.93,3.12c.81,0,1.6.45,1.95,1.23h.01c1.66,3.71.92,7.86-1.55,10.74-.19.23-.39.44-.61.65-.57.54-.72,1.39-.39,2.11l.04.09c.31.68.97,1.12,1.71,1.12.05,0,.09,0,.14,0,.26-.02.53-.03.79-.03,3.83,0,7.49,2.2,9.17,5.93.04.09.08.2.12.3.39.94-.05,2.02-.97,2.44l-14.91,6.73c-.25.12-.52.17-.78.17-.7,0-1.37-.38-1.69-1.05-.04-.09-.09-.19-.13-.3-1.8-3.97-.79-8.49,2.16-11.36.56-.56.7-1.4.38-2.12l-.04-.09c-.31-.68-.97-1.11-1.7-1.11-.05,0-.09,0-.14,0-.25.02-.51.03-.76.03-3.84,0-7.5-2.2-9.19-5.93t-.02-.02c-.49-1.09.06-2.36,1.14-2.85l4.95-2.24,9.41-4.24c.3-.14.61-.2.93-.2M19.93,2.18c-.46,0-.9.1-1.32.29l-9.4,4.23-4.95,2.24c-1.57.71-2.3,2.54-1.61,4.08h0s.03.06.04.08c1.79,3.9,5.72,6.42,10.02,6.42.28,0,.55-.01.83-.03.02,0,.05,0,.07,0,.37,0,.69.21.85.56l.03.07c.18.39.1.82-.18,1.09-3.31,3.22-4.25,8.21-2.35,12.42.01.04.05.12.09.19l.04.08s.01.03.02.05c.47.96,1.46,1.58,2.54,1.58.41,0,.8-.09,1.17-.26l14.91-6.72c1.4-.64,2.03-2.24,1.45-3.65l-.06-.15-.06-.16c-1.79-3.96-5.72-6.5-10.04-6.5-.29,0-.58.01-.86.03-.02,0-.04,0-.06,0-.36,0-.69-.22-.85-.57l-.03-.07c-.18-.39-.1-.81.17-1.07.26-.25.48-.48.68-.73,2.77-3.22,3.43-7.82,1.68-11.71-.02-.04-.04-.09-.07-.13-.51-1.02-1.58-1.67-2.75-1.67h0Z"/>
            </g>
            <path class="cls-4" d="M7.86,16.11s-1.36-.75-1.86-1.58,1.73-2.47,3.88-2.77c2.15-.3,3.67-.24,5.08-1.68s3.33-2.52,4.93-2.88,1.89.12,1.89.12c0,0-5.2,5.36-8.73,7.22s-5.17,1.57-5.17,1.57Z"/>
            <path class="cls-3" d="M23.86,23.61c-.13.01-.26.03-.38.04-1.43.12-2.77-.68-3.36-1.98l-1.51-3.35c-.6-1.33-.24-2.86.8-3.9,1.74-1.72,2.81-4.11,2.35-7.1,0,0-3.64-.02-7.04,3.97-3.39,3.99-6.48,2.43-8,4,0,0,3.13,3.06,7.29,2.07,0,0,0,0,.01,0,.71-.17,1.44.17,1.74.83l2.41,5.34c.22.48.18,1.04-.13,1.46-.07.09-.14.18-.22.27-1.11,1.23-2.87,2.58-3.27,4.53-.4,1.95.81,3.37.81,3.37l14.54-6.29s0-.62-.86-1.73c-.86-1.11-1.77-1.91-5.19-1.54Z"/>
            <path class="cls-10" d="M18.24,23.1s.7.62.43,1.45-1.71,2.1-2.9,3.54-1.07,2.87-.69,3.84,13.85-5.17,14.01-5.54-.83-2.58-2.96-2.55-3.44.72-4.58-.15-1.67-1.78-1.67-1.78"/>
            <path class="cls-12" d="M20.35,15.09c-6.24-1.24-9.27-4.65-10.75-7.53l9.41-4.24c1.07-.5,2.39-.06,2.88,1.03h.01c1.66,3.71.92,7.86-1.55,10.74Z"/>
            <path class="cls-9" d="M20.06,3.57c.52,0,.98.29,1.21.76.04.09.08.17.12.26,1.64,3.64.82,7.96-2.04,10.75-.72.7-.92,1.8-.5,2.73l.04.1c.39.87,1.26,1.44,2.2,1.44.06,0,.12,0,.18,0,.24-.02.49-.03.73-.03,3.74,0,7.15,2.2,8.69,5.6.04.09.08.18.12.27.28.68-.02,1.44-.69,1.75l-14.91,6.73c-.18.08-.36.12-.55.12-.52,0-.98-.29-1.21-.76-.04-.09-.08-.17-.12-.26-1.64-3.64-.82-7.96,2.04-10.75.72-.7.92-1.8.5-2.73l-.04-.1c-.39-.87-1.26-1.44-2.2-1.44-.06,0-.12,0-.18,0-.24.02-.49.03-.73.03-3.74,0-7.15-2.2-8.69-5.6-.04-.09-.08-.18-.12-.27-.28-.68.02-1.44.69-1.75l14.91-6.73c.18-.08.36-.12.55-.12M20.06,3.03c-.26,0-.53.05-.78.17l-14.91,6.73c-.93.42-1.36,1.51-.97,2.46.04.09.08.19.12.28,1.68,3.73,5.35,5.93,9.19,5.93.26,0,.51,0,.77-.03.05,0,.09,0,.14,0,.73,0,1.4.44,1.7,1.11l.04.1c.32.72.18,1.57-.39,2.11-2.96,2.87-3.96,7.4-2.16,11.37.04.09.09.19.13.28.33.67,1,1.06,1.71,1.06.26,0,.53-.05.78-.17l14.91-6.73c.93-.42,1.36-1.51.97-2.46-.04-.09-.08-.19-.12-.28-1.68-3.73-5.35-5.93-9.19-5.93-.26,0-.51,0-.77.03-.05,0-.09,0-.14,0-.73,0-1.4-.44-1.7-1.11l-.04-.1c-.32-.72-.18-1.57.39-2.11,2.96-2.87,3.96-7.4,2.16-11.37-.04-.09-.09-.19-.13-.28-.33-.67-1-1.06-1.71-1.06h0Z"/>
            <path class="cls-18" d="M20.06,3.44c.57,0,1.08.32,1.34.83.04.09.09.18.13.27,1.67,3.69.84,8.08-2.07,10.91-.68.66-.87,1.7-.47,2.58l.04.1c.37.82,1.19,1.35,2.08,1.35.06,0,.11,0,.17,0,.25-.02.49-.03.74-.03,3.79,0,7.25,2.23,8.81,5.68.04.09.08.18.12.27.31.75-.02,1.59-.76,1.92l-14.91,6.73c-.19.09-.4.13-.61.13-.57,0-1.08-.32-1.34-.83-.04-.09-.09-.18-.13-.27-1.67-3.69-.84-8.08,2.07-10.91.68-.66.87-1.7.47-2.58l-.04-.1c-.37-.82-1.19-1.35-2.08-1.35-.06,0-.11,0-.17,0-.25.02-.49.03-.74.03-3.79,0-7.25-2.23-8.81-5.68-.04-.09-.08-.18-.12-.27-.31-.75.02-1.59.76-1.92l14.91-6.73c.19-.09.4-.13.61-.13M20.06,3.03c-.26,0-.53.05-.78.17l-14.91,6.73c-.93.42-1.36,1.51-.97,2.46.04.09.08.19.12.28,1.68,3.73,5.35,5.93,9.19,5.93.26,0,.51,0,.77-.03.05,0,.09,0,.14,0,.73,0,1.4.44,1.7,1.11l.04.1c.32.72.18,1.57-.39,2.11-2.96,2.87-3.96,7.4-2.16,11.37.04.09.09.19.13.28.33.67,1,1.06,1.71,1.06.26,0,.53-.05.78-.17l14.91-6.73c.93-.42,1.36-1.51.97-2.46-.04-.09-.08-.19-.12-.28-1.68-3.73-5.35-5.93-9.19-5.93-.26,0-.51,0-.77.03-.05,0-.09,0-.14,0-.73,0-1.4-.44-1.7-1.11l-.04-.1c-.32-.72-.18-1.57.39-2.11,2.96-2.87,3.96-7.4,2.16-11.37-.04-.09-.09-.19-.13-.28-.33-.67-1-1.06-1.71-1.06h0Z"/>
            <path class="cls-13" d="M16.54,19.36s-.48-2.48-2.3-2.31-2.71.63-4.6-.28-2.35-1.17-2.39-1.43.86-.5,2.58-.79,2.96-.69,4.34-2.29,2.87-2.99,4.38-3.76,2.88-.95,2.96-.84.52,2.96-.95,4.76-2.14,2.3-2.42,3.28.11,2.58.11,2.58"/>
            <ellipse class="cls-14" cx="17.08" cy="10.16" rx="1.04" ry=".58" transform="translate(-2.44 13.85) rotate(-41.44)"/>
            <ellipse class="cls-16" cx="18.46" cy="10.14" rx=".45" ry=".28" transform="translate(-2.09 14.75) rotate(-41.44)"/>
          </g>
          <g>
            <g>
              <path class="cls-2" d="M2.33,12.56c-.74,0-1.4-.43-1.7-1.1-.06-.13-.11-.3-.14-.49-.13-.83.3-1.63,1.08-1.98L20.07.64c.24-.11.51-.17.77-.17.72,0,1.39.43,1.7,1.1.07.14.12.3.14.47.13.83-.31,1.65-1.07,2L3.11,12.39c-.25.11-.51.17-.78.17Z"/>
              <path class="cls-20" d="M20.84.94c.53,0,1.03.31,1.27.83.06.12.09.24.11.35.1.62-.22,1.24-.8,1.5l-12.29,5.55-6.21,2.8c-.19.09-.39.13-.59.13-.53,0-1.04-.31-1.27-.83-.06-.12-.09-.25-.11-.38-.09-.61.22-1.21.81-1.48l5.61-2.53L20.26,1.07c.19-.09.39-.13.58-.13M20.84,0c-.34,0-.66.07-.97.21L6.99,6.03l-5.61,2.53c-.97.44-1.51,1.44-1.35,2.48.04.24.1.45.19.63.36.82,1.19,1.36,2.11,1.36.34,0,.67-.07.98-.21l6.21-2.8,12.29-5.55c.95-.44,1.5-1.47,1.34-2.5-.03-.22-.1-.42-.19-.61-.38-.82-1.21-1.36-2.12-1.36h0Z"/>
            </g>
            <path class="cls-15" d="M22.22,2.11c.1.62-.22,1.24-.8,1.5l-12.29,5.55c-.7-.78-1.28-1.55-1.76-2.28L20.26,1.07c.71-.33,1.53-.01,1.85.7.06.12.09.24.11.35Z"/>
            <g class="cls-17">
              <path class="cls-5" d="M20.84,1.25c.42,0,.81.25.99.65.04.08.06.17.08.26.08.48-.18.97-.62,1.17l-12.29,5.55-6.22,2.8c-.14.07-.3.1-.45.1-.43,0-.81-.25-.99-.65-.04-.08-.06-.18-.08-.29-.07-.48.18-.94.63-1.15l5.61-2.53L20.39,1.35c.14-.07.3-.1.45-.1M20.84.94c-.19,0-.39.04-.58.13L7.37,6.88l-5.61,2.53c-.59.27-.9.87-.81,1.48.02.12.05.26.11.38.23.52.74.83,1.27.83.2,0,.39-.04.59-.13l6.21-2.8,12.29-5.55c.58-.27.9-.89.8-1.5-.02-.11-.05-.23-.11-.35-.24-.52-.74-.83-1.27-.83h0Z"/>
            </g>
          </g>
          <g>
            <g>
              <path class="cls-1" d="M13.5,37.27c-.73,0-1.4-.43-1.71-1.09-.07-.14-.12-.3-.14-.48-.13-.85.32-1.67,1.09-2.01l18.48-8.36c.25-.11.5-.16.77-.16.74,0,1.41.43,1.71,1.1.06.13.11.3.14.49.13.84-.32,1.65-1.08,1.98l-9.54,4.31-8.95,4.05c-.25.11-.5.16-.77.16Z"/>
              <path class="cls-20" d="M31.99,25.65c.54,0,1.05.3,1.28.82.06.12.09.25.11.38.09.6-.21,1.22-.81,1.48l-9.55,4.31-8.95,4.05c-.19.08-.38.12-.57.12-.54,0-1.04-.31-1.28-.82-.06-.12-.09-.24-.11-.35-.1-.62.22-1.25.81-1.51l7.42-3.36,11.07-5c.19-.08.38-.12.57-.12M31.99,24.71h0c-.33,0-.65.07-.95.2l-11.08,5.01-7.42,3.36c-.96.41-1.52,1.45-1.35,2.5.03.22.1.42.19.61.38.82,1.22,1.35,2.13,1.35.33,0,.65-.07.95-.2l8.96-4.06,9.55-4.31c.95-.41,1.51-1.43,1.35-2.48-.04-.24-.1-.45-.19-.64-.36-.81-1.2-1.35-2.12-1.35h0Z"/>
            </g>
            <path class="cls-11" d="M33.38,26.84c.09.6-.21,1.22-.81,1.48l-9.55,4.31c-1.01-.56-1.91-1.21-2.68-1.86l11.07-5c.71-.31,1.54,0,1.85.7.06.12.09.25.11.38Z"/>
            <g class="cls-17">
              <path class="cls-6" d="M31.99,25.96h0c.43,0,.82.25,1,.64.04.08.06.17.08.29.08.48-.18.95-.63,1.15l-9.55,4.31-8.95,4.05c-.14.06-.29.09-.45.09-.43,0-.82-.25-1-.64-.04-.08-.06-.17-.08-.26-.08-.49.18-.98.64-1.17l7.42-3.36,11.07-5c.14-.06.29-.09.45-.09M31.99,25.65c-.19,0-.39.04-.57.12l-11.07,5-7.42,3.36c-.59.26-.91.89-.81,1.51.02.11.05.23.11.35.24.51.75.82,1.28.82.19,0,.39-.04.57-.12l8.95-4.05,9.55-4.31c.59-.26.9-.87.81-1.48-.02-.12-.05-.26-.11-.38-.23-.51-.74-.82-1.28-.82h0Z"/>
            </g>
          </g>
        </g>
      </g>
    </g>
  </g>
</svg>