<?xml version="1.0" encoding="UTF-8"?>
<svg xmlns="http://www.w3.org/2000/svg" xmlns:xlink="http://www.w3.org/1999/xlink" viewBox="0 0 50.2 31.86">
  <defs>
    <style>
      .cls-1 {
        fill: url(#linear-gradient-6);
      }

      .cls-2 {
        fill: url(#linear-gradient);
      }

      .cls-3 {
        isolation: isolate;
      }

      .cls-4 {
        fill: url(#radial-gradient);
      }

      .cls-4, .cls-5, .cls-6, .cls-7, .cls-8, .cls-9 {
        mix-blend-mode: overlay;
      }

      .cls-5 {
        fill: url(#linear-gradient-2);
      }

      .cls-6 {
        fill: url(#linear-gradient-3);
      }

      .cls-7 {
        fill: url(#linear-gradient-4);
      }

      .cls-8 {
        fill: url(#linear-gradient-5);
      }

      .cls-10 {
        fill: #fff;
      }

      .cls-11 {
        fill: #ff9821;
      }

      .cls-12 {
        fill: #eb8b1d;
      }
    </style>
    <linearGradient id="linear-gradient" x1="31.03" y1="38.74" x2="20.67" y2="2.27" gradientUnits="userSpaceOnUse">
      <stop offset="0" stop-color="#ffaf52"/>
      <stop offset=".12" stop-color="#ffb54d"/>
      <stop offset=".28" stop-color="#ffc841"/>
      <stop offset=".39" stop-color="#ffd738"/>
      <stop offset=".44" stop-color="#ffd83e"/>
      <stop offset=".51" stop-color="#ffdb51"/>
      <stop offset=".59" stop-color="#ffe06f"/>
      <stop offset=".68" stop-color="#ffe799"/>
      <stop offset=".71" stop-color="#ffebab"/>
      <stop offset=".75" stop-color="#fee6a4"/>
      <stop offset=".8" stop-color="#fddb91"/>
      <stop offset=".85" stop-color="#fbc773"/>
      <stop offset=".92" stop-color="#f9ad49"/>
      <stop offset=".97" stop-color="#f79320"/>
    </linearGradient>
    <linearGradient id="linear-gradient-2" x1="24.39" y1="10" x2="25.76" y2="28.84" gradientUnits="userSpaceOnUse">
      <stop offset=".14" stop-color="#674c41"/>
      <stop offset=".39" stop-color="#3c2f29"/>
      <stop offset=".6" stop-color="#1f1c1a"/>
      <stop offset=".72" stop-color="#151515"/>
    </linearGradient>
    <linearGradient id="linear-gradient-3" x1="27.06" y1="-.59" x2="24.75" y2="19.51" gradientUnits="userSpaceOnUse">
      <stop offset=".23" stop-color="#fff"/>
      <stop offset=".63" stop-color="#fff" stop-opacity="0"/>
    </linearGradient>
    <linearGradient id="linear-gradient-4" x1="25.31" y1="7.78" x2="30.39" y2="15.01" xlink:href="#linear-gradient-3"/>
    <linearGradient id="linear-gradient-5" x1="25.77" y1="7.46" x2="30.84" y2="14.69" xlink:href="#linear-gradient-3"/>
    <linearGradient id="linear-gradient-6" x1="-11.36" y1="8.98" x2="71.26" y2="31.63" gradientUnits="userSpaceOnUse">
      <stop offset="0" stop-color="#ffa43b"/>
      <stop offset=".14" stop-color="#ffaa36"/>
      <stop offset=".34" stop-color="#ffbd2b"/>
      <stop offset=".51" stop-color="#ffd21f"/>
      <stop offset=".54" stop-color="#ffd225"/>
      <stop offset=".59" stop-color="#ffd338"/>
      <stop offset=".62" stop-color="#ffd447"/>
      <stop offset=".7" stop-color="#fecd43"/>
      <stop offset=".81" stop-color="#fbba37"/>
      <stop offset=".94" stop-color="#f89c25"/>
      <stop offset=".97" stop-color="#f79320"/>
    </linearGradient>
    <radialGradient id="radial-gradient" cx="23.85" cy="20.3" fx="23.85" fy="20.3" r="13.27" gradientUnits="userSpaceOnUse">
      <stop offset=".23" stop-color="#fff"/>
      <stop offset=".63" stop-color="#fff" stop-opacity="0"/>
    </radialGradient>
  </defs>
  <g class="cls-3">
    <g id="Layer_2" data-name="Layer 2">
      <g id="Layer_1-2" data-name="Layer 1">
        <g>
          <g>
            <polygon class="cls-12" points="22.66 9.42 20.16 .7 20.75 .54 23.25 9.25 22.66 9.42"/>
            <ellipse class="cls-12" cx="20.43" cy=".58" rx="1.07" ry=".55" transform="translate(.29 4.09) rotate(-11.51)"/>
          </g>
          <g>
            <polygon class="cls-12" points="34 12.85 42.22 9.04 41.96 8.48 33.74 12.29 34 12.85"/>
            <ellipse class="cls-12" cx="42.14" cy="8.75" rx=".55" ry="1.07" transform="translate(1.12 21.79) rotate(-29.37)"/>
          </g>
          <g>
            <path class="cls-2" d="M25,31.55c-.55,0-1.11-.03-1.66-.1-7.71-.91-13.24-7.91-12.33-15.62.04-.34.09-.68.15-1.01,1.26-6.62,7.07-11.43,13.82-11.43.54,0,1.1.03,1.64.09,5.1.6,9.47,3.93,11.41,8.69.87,2.17,1.19,4.56.92,6.93-.83,7.09-6.84,12.44-13.96,12.44Z"/>
            <path class="cls-12" d="M24.98,3.71c.53,0,1.07.03,1.61.09,5.16.61,9.32,4,11.16,8.5.84,2.07,1.17,4.39.9,6.77-.82,7-6.77,12.17-13.65,12.17-.54,0-1.08-.03-1.62-.1-7.55-.89-12.95-7.72-12.06-15.27.04-.34.09-.66.15-.99,1.24-6.5,6.95-11.18,13.51-11.18M24.98,3.08h0c-6.9,0-12.84,4.91-14.13,11.68-.07.35-.12.69-.16,1.04-.45,3.81.62,7.57,3,10.59,2.38,3.01,5.79,4.92,9.61,5.37.56.07,1.13.1,1.69.1,7.28,0,13.42-5.47,14.27-12.72.28-2.42-.05-4.86-.94-7.08-1.99-4.86-6.45-8.27-11.66-8.88-.56-.06-1.12-.1-1.68-.1h0Z"/>
          </g>
          <path class="cls-5" d="M36.67,19.46c-.76,6.46-6.61,11.09-13.06,10.33-6.46-.76-11.08-6.61-10.32-13.06.03-.29.07-.57.13-.84,1.77.45,3.66.77,5.65.91,7.1.49,12.67-1.05,16.84-3.12.72,1.77,1.01,3.75.77,5.79Z"/>
          <path class="cls-6" d="M37.05,18.88c-.78,6.66-6.82,11.44-13.48,10.66-6.66-.78-11.43-6.82-10.65-13.48.03-.3.08-.58.13-.87,1.18-6.2,6.97-10.53,13.35-9.79,4.56.54,8.23,3.53,9.85,7.5.74,1.83,1.04,3.87.79,5.98Z"/>
          <ellipse class="cls-7" cx="24.63" cy="6.81" rx="2.74" ry="1.73"/>
          <ellipse class="cls-8" cx="27.39" cy="9.77" rx="1.06" ry=".81"/>
          <g class="cls-9">
            <path class="cls-10" d="M24.96,4.02h0c.53,0,1.06.03,1.58.09,7.36.86,12.65,7.56,11.79,14.92-.79,6.77-6.53,11.88-13.34,11.88-.53,0-1.06-.03-1.58-.09-3.57-.42-6.76-2.2-8.99-5.02-2.23-2.82-3.22-6.34-2.8-9.9.79-6.77,6.53-11.88,13.34-11.88M24.96,3.71c-6.88,0-12.83,5.16-13.65,12.16-.89,7.55,4.52,14.38,12.06,15.27.54.06,1.08.1,1.62.1,6.88,0,12.83-5.16,13.65-12.16.89-7.55-4.52-14.38-12.06-15.27-.54-.06-1.08-.1-1.62-.1h0Z"/>
          </g>
          <g>
            <path class="cls-11" d="M2.17,10.65s.8-.51,3.18-.42,4.74.37,4.74.37c0,0-3.31-1.51-7.47-1.19-4.16.32-.45,1.24-.45,1.24Z"/>
            <path class="cls-11" d="M39.37,19.44c7.76,3.21,8.75,5.41,8.75,5.41l1.25-.75c-1.71-2.45-9.99-4.66-9.99-4.66Z"/>
            <path class="cls-1" d="M50.17,25.74c-.37,1.22-3.65,1.44-8.61.79-4.74-.61-11.01-2.02-17.77-4.07-7.08-2.15-13.33-4.6-17.64-6.8C2.03,13.55-.32,11.67.03,10.5c.24-.8,1.75-1.17,4.16-1.15-.95.1-1.54.31-1.65.66-.25.81,2,2.3,5.85,4.06,3.97,1.82,9.67,3.94,16.09,5.89,6.4,1.95,12.3,3.36,16.61,4.05,4.2.7,6.9.71,7.15-.1.12-.39-.34-.96-1.25-1.66,2.25,1.42,3.44,2.65,3.17,3.5Z"/>
            <path class="cls-4" d="M41.56,26.53c-4.74-.61-11.01-2.02-17.77-4.07-7.08-2.15-13.33-4.6-17.64-6.8.71-.55,1.46-1.07,2.25-1.59,3.97,1.82,9.67,3.94,16.09,5.89,6.4,1.95,12.3,3.36,16.61,4.05.21.85.37,1.7.46,2.52Z"/>
            <g class="cls-9">
              <path class="cls-10" d="M2.65,9.59c-.15.11-.24.23-.29.37-.28.91,1.72,2.35,5.95,4.29,4.15,1.91,9.88,4,16.12,5.89,6.23,1.9,12.13,3.34,16.63,4.05,2.07.35,3.74.52,4.98.52,1.45,0,2.23-.25,2.38-.75.05-.16.04-.34-.05-.53,1.59,1.23,1.72,1.93,1.62,2.26-.2.65-1.52,1.01-3.73,1.01-1.29,0-2.86-.12-4.68-.36-4.86-.63-11.16-2.07-17.74-4.07-6.86-2.08-13.12-4.49-17.61-6.78C.37,12.48.07,11.03.21,10.55c.15-.51,1.01-.85,2.44-.97M3.97,9.35c-2.28,0-3.71.38-3.94,1.15-.35,1.17,2,3.05,6.11,5.16,4.31,2.2,10.56,4.65,17.64,6.8,6.76,2.05,13.03,3.46,17.77,4.07,1.81.24,3.4.36,4.7.36,2.26,0,3.67-.37,3.91-1.15.26-.85-.92-2.07-3.17-3.5.91.7,1.37,1.27,1.25,1.66-.13.42-.91.62-2.2.62-1.22,0-2.91-.18-4.95-.52-4.31-.69-10.21-2.1-16.61-4.05-6.42-1.95-12.12-4.06-16.09-5.89-3.85-1.76-6.1-3.25-5.85-4.06.11-.35.7-.56,1.65-.66-.08,0-.15,0-.22,0h0Z"/>
            </g>
          </g>
        </g>
      </g>
    </g>
  </g>
</svg>