<?xml version="1.0" encoding="UTF-8"?>
<svg xmlns="http://www.w3.org/2000/svg" xmlns:xlink="http://www.w3.org/1999/xlink" viewBox="0 0 58.1 41.38">
  <defs>
    <style>
      .cls-1, .cls-2 {
        fill: #fff1e0;
      }

      .cls-3 {
        fill: url(#linear-gradient-8);
      }

      .cls-4 {
        fill: url(#linear-gradient-7);
      }

      .cls-5 {
        fill: url(#linear-gradient-5);
      }

      .cls-6 {
        fill: url(#linear-gradient-6);
      }

      .cls-7 {
        fill: url(#linear-gradient-9);
      }

      .cls-8 {
        fill: url(#linear-gradient-4);
      }

      .cls-9 {
        fill: url(#linear-gradient-3);
      }

      .cls-10 {
        fill: url(#linear-gradient-2);
      }

      .cls-11 {
        fill: url(#linear-gradient);
      }

      .cls-12 {
        opacity: .55;
      }

      .cls-12, .cls-13 {
        fill: #020204;
      }

      .cls-12, .cls-13, .cls-14, .cls-2 {
        mix-blend-mode: overlay;
      }

      .cls-13 {
        opacity: .63;
      }

      .cls-15 {
        isolation: isolate;
      }

      .cls-16 {
        fill: url(#linear-gradient-40);
      }

      .cls-17 {
        fill: url(#linear-gradient-41);
      }

      .cls-18 {
        fill: url(#linear-gradient-42);
      }

      .cls-19 {
        fill: url(#linear-gradient-10);
      }

      .cls-20 {
        fill: url(#linear-gradient-11);
      }

      .cls-21 {
        fill: url(#linear-gradient-12);
      }

      .cls-22 {
        fill: url(#linear-gradient-13);
      }

      .cls-23 {
        fill: url(#linear-gradient-19);
      }

      .cls-24 {
        fill: url(#linear-gradient-14);
      }

      .cls-25 {
        fill: url(#linear-gradient-21);
      }

      .cls-26 {
        fill: url(#linear-gradient-20);
      }

      .cls-27 {
        fill: url(#linear-gradient-22);
      }

      .cls-28 {
        fill: url(#linear-gradient-23);
      }

      .cls-29 {
        fill: url(#linear-gradient-28);
      }

      .cls-30 {
        fill: url(#linear-gradient-25);
      }

      .cls-31 {
        fill: url(#linear-gradient-32);
      }

      .cls-32 {
        fill: url(#linear-gradient-31);
      }

      .cls-33 {
        fill: url(#linear-gradient-33);
      }

      .cls-34 {
        fill: url(#linear-gradient-30);
      }

      .cls-35 {
        fill: url(#linear-gradient-15);
      }

      .cls-36 {
        fill: url(#linear-gradient-16);
      }

      .cls-37 {
        fill: url(#linear-gradient-17);
      }

      .cls-38 {
        fill: url(#linear-gradient-18);
      }

      .cls-39 {
        fill: url(#linear-gradient-35);
      }

      .cls-40 {
        fill: url(#linear-gradient-34);
      }

      .cls-41 {
        fill: url(#linear-gradient-36);
      }

      .cls-42 {
        fill: url(#linear-gradient-38);
      }

      .cls-43 {
        fill: url(#linear-gradient-27);
      }

      .cls-44 {
        fill: url(#linear-gradient-24);
      }

      .cls-45 {
        fill: url(#linear-gradient-26);
      }

      .cls-46 {
        fill: url(#linear-gradient-29);
      }

      .cls-47 {
        fill: url(#linear-gradient-37);
      }

      .cls-48 {
        fill: url(#linear-gradient-39);
      }

      .cls-49 {
        fill: #ff9821;
      }

      .cls-50 {
        fill: #c77619;
      }
    </style>
    <linearGradient id="linear-gradient" x1="55.29" y1="-.27" x2="55.39" y2="37.11" gradientUnits="userSpaceOnUse">
      <stop offset=".18" stop-color="#feee64"/>
      <stop offset="1" stop-color="#fcc674"/>
    </linearGradient>
    <linearGradient id="linear-gradient-2" x1="55.15" y1="-.06" x2="55.25" y2="37.54" xlink:href="#linear-gradient"/>
    <linearGradient id="linear-gradient-3" x1="55.27" y1="-.71" x2="55.37" y2="36.79" xlink:href="#linear-gradient"/>
    <linearGradient id="linear-gradient-4" x1="55.13" y1="-.53" x2="55.23" y2="37.3" xlink:href="#linear-gradient"/>
    <linearGradient id="linear-gradient-5" x1="55.26" y1="-1.1" x2="55.36" y2="36.35" xlink:href="#linear-gradient"/>
    <linearGradient id="linear-gradient-6" x1="55.12" y1="-1" x2="55.22" y2="36.84" xlink:href="#linear-gradient"/>
    <linearGradient id="linear-gradient-7" x1="55.24" y1="-1.48" x2="55.34" y2="35.92" xlink:href="#linear-gradient"/>
    <linearGradient id="linear-gradient-8" x1="55.1" y1="-1.42" x2="55.2" y2="36.35" xlink:href="#linear-gradient"/>
    <linearGradient id="linear-gradient-9" x1="55.23" y1="-1.78" x2="55.33" y2="35.49" xlink:href="#linear-gradient"/>
    <linearGradient id="linear-gradient-10" x1="55.09" y1="-1.92" x2="55.19" y2="35.91" xlink:href="#linear-gradient"/>
    <linearGradient id="linear-gradient-11" x1="55.22" y1="-2.3" x2="55.32" y2="35.12" xlink:href="#linear-gradient"/>
    <linearGradient id="linear-gradient-12" x1="55.07" y1="-2.25" x2="55.18" y2="35.41" xlink:href="#linear-gradient"/>
    <linearGradient id="linear-gradient-13" x1="54.61" y1="14.71" x2="54.81" y2="87.56" xlink:href="#linear-gradient"/>
    <linearGradient id="linear-gradient-14" x1="24.33" y1="-4.91" x2="57.28" y2="17.33" xlink:href="#linear-gradient"/>
    <linearGradient id="linear-gradient-15" x1="25.76" y1="-6.54" x2="58.34" y2="15.45" xlink:href="#linear-gradient"/>
    <linearGradient id="linear-gradient-16" x1="21.94" y1="-1.69" x2="55.25" y2="20.8" xlink:href="#linear-gradient"/>
    <linearGradient id="linear-gradient-17" x1="23.74" y1="-3.24" x2="56.33" y2="18.76" xlink:href="#linear-gradient"/>
    <linearGradient id="linear-gradient-18" x1="19.91" y1="1.66" x2="53.27" y2="24.18" xlink:href="#linear-gradient"/>
    <linearGradient id="linear-gradient-19" x1="21.83" y1=".01" x2="54.39" y2="22" xlink:href="#linear-gradient"/>
    <linearGradient id="linear-gradient-20" x1="18.49" y1="6" x2="50.96" y2="27.93" xlink:href="#linear-gradient"/>
    <linearGradient id="linear-gradient-21" x1="19.55" y1="3.65" x2="52.27" y2="25.74" xlink:href="#linear-gradient"/>
    <linearGradient id="linear-gradient-22" x1="16.57" y1="9.72" x2="49.03" y2="31.63" xlink:href="#linear-gradient"/>
    <linearGradient id="linear-gradient-23" x1="17.62" y1="7.81" x2="50.01" y2="29.68" xlink:href="#linear-gradient"/>
    <linearGradient id="linear-gradient-24" x1="14.76" y1="13.09" x2="47.33" y2="35.09" xlink:href="#linear-gradient"/>
    <linearGradient id="linear-gradient-25" x1="15.61" y1="11.31" x2="48.17" y2="33.3" xlink:href="#linear-gradient"/>
    <linearGradient id="linear-gradient-26" x1="13.04" y1="16.36" x2="45.8" y2="38.47" xlink:href="#linear-gradient"/>
    <linearGradient id="linear-gradient-27" x1="13.71" y1="14.72" x2="46.51" y2="36.87" xlink:href="#linear-gradient"/>
    <linearGradient id="linear-gradient-28" x1="11.73" y1="19.19" x2="44.55" y2="41.35" xlink:href="#linear-gradient"/>
    <linearGradient id="linear-gradient-29" x1="11.86" y1="17.64" x2="45.34" y2="40.24" xlink:href="#linear-gradient"/>
    <linearGradient id="linear-gradient-30" x1="9.5" y1="20.78" x2="46.4" y2="45.69" xlink:href="#linear-gradient"/>
    <linearGradient id="linear-gradient-31" x1="10.5" y1="20.22" x2="44.57" y2="43.22" xlink:href="#linear-gradient"/>
    <linearGradient id="linear-gradient-32" x1="10.43" y1="23.38" x2="42.38" y2="44.95" xlink:href="#linear-gradient"/>
    <linearGradient id="linear-gradient-33" x1="10.63" y1="23.05" x2="42.37" y2="44.48" xlink:href="#linear-gradient"/>
    <linearGradient id="linear-gradient-34" x1="10.47" y1="23.94" x2="42.08" y2="45.29" xlink:href="#linear-gradient"/>
    <linearGradient id="linear-gradient-35" x1="10.49" y1="23.82" x2="42.04" y2="45.12" xlink:href="#linear-gradient"/>
    <linearGradient id="linear-gradient-36" x1="10.65" y1="24.01" x2="41.99" y2="45.17" xlink:href="#linear-gradient"/>
    <linearGradient id="linear-gradient-37" x1="10.61" y1="24" x2="42.11" y2="45.26" xlink:href="#linear-gradient"/>
    <linearGradient id="linear-gradient-38" x1="10.97" y1="23.64" x2="41.97" y2="44.57" xlink:href="#linear-gradient"/>
    <linearGradient id="linear-gradient-39" x1="10.84" y1="23.93" x2="42.3" y2="45.17" xlink:href="#linear-gradient"/>
    <linearGradient id="linear-gradient-40" x1="1.62" y1="16.24" x2="5.03" y2="18.54" xlink:href="#linear-gradient"/>
    <linearGradient id="linear-gradient-41" x1=".58" y1="14.56" x2="3.36" y2="16.44" xlink:href="#linear-gradient"/>
    <linearGradient id="linear-gradient-42" x1="3.23" y1="17.93" x2="6.45" y2="20.1" xlink:href="#linear-gradient"/>
  </defs>
  <g class="cls-15">
    <g id="Layer_2" data-name="Layer 2">
      <g id="Layer_1-2" data-name="Layer 1">
        <g>
          <g>
            <g>
              <path class="cls-11" d="M54.93,7.74c-.67,0-1.16-.38-1.45-1.11-.32-.86-.28-2.02-.23-2.63,0-.03.03-.14.04-.17.01-.02.05-.08.14-.13.02-.03.05-.05.07-.06.16-.17.73-.65,1.6-.65.14,0,.28.01.43.04,0,0,0,0,.01,0,.02,0,.07,0,.13.02.66.15,1.14.48,1.43.98.49.86.24,1.99.05,2.59-.05.14-.08.22-.08.22-.86.62-1.52.89-2.11.91,0,0-.04,0-.04,0Z"/>
              <path class="cls-49" d="M55.11,3.16c.13,0,.26.01.4.04.03,0,.07,0,.12.01,2.13.5,1.59,2.67,1.37,3.35-.04.13-.07.2-.07.2-.83.57-1.46.79-1.95.8-.01,0-.02,0-.03,0-.68,0-1.06-.43-1.29-1.01-.34-.92-.25-2.19-.22-2.55.01-.06.01-.09.01-.09,0,0,.03-.04.1-.09,0-.01.01-.03.04-.04.24-.24.77-.63,1.53-.63M55.11,2.81c-.89,0-1.49.47-1.74.7-.03.02-.06.05-.08.07-.08.06-.12.11-.14.14-.04.06-.06.12-.06.19,0,.02-.01.04-.01.06-.06.77-.07,1.85.24,2.7.41,1.02,1.1,1.23,1.62,1.23.66-.02,1.36-.3,2.18-.86.06-.04.1-.09.13-.16,0,0,.03-.08.08-.22.2-.63.46-1.81-.07-2.73-.31-.54-.83-.9-1.55-1.07-.05-.02-.12-.02-.16-.02-.14-.02-.29-.04-.43-.04h0Z"/>
            </g>
            <g>
              <path class="cls-10" d="M53.38,4.23c-.07,0-.14-.03-.17-.09-.03-.08-.66-1.95.59-3.24.23-.23.49-.41.77-.53.29-.13.6-.19.91-.19.62,0,1.06.25,1.08.26.06.06.71.71.71,1.48,0,.17-.02,1.7-.61,1.7-.08,0-.17-.03-.25-.1-.25-.21-.49-.35-.74-.44-.19-.07-.37-.11-.54-.11-.65,0-1.13.5-1.42.92l-.1.13-.06.1c-.03.06-.1.12-.17.12,0,0,0,0,0,0Z"/>
              <path class="cls-49" d="M55.49.34c.58,0,.99.24.99.24,0,0,.63.63.63,1.33s-.15,1.53-.44,1.53c-.04,0-.09-.02-.14-.06-.28-.23-.54-.38-.79-.47-.21-.08-.41-.12-.6-.12-.66,0-1.19.45-1.56.99-.03.01-.04.03-.04.04-.04.06-.07.12-.12.18-.01.03-.03.04-.04.07,0,0-.64-1.84.55-3.06.23-.23.48-.39.71-.5.3-.13.59-.18.84-.18M55.49,0c-.34,0-.67.07-.98.21-.29.13-.57.32-.82.57-1.33,1.36-.66,3.34-.64,3.42.05.13.16.22.3.23,0,0,.02,0,.02,0,.13,0,.25-.07.31-.19,0-.01.02-.03.03-.04.02-.03.04-.06.06-.09.01-.02.02-.03.03-.05.02-.02.04-.04.06-.07.26-.38.7-.84,1.28-.84.15,0,.31.03.48.09.24.08.46.22.69.41.12.09.24.14.36.14.71,0,.79-1.31.79-1.88,0-.83-.7-1.54-.73-1.57-.02-.02-.05-.04-.07-.05-.02-.01-.5-.28-1.17-.28h0Z"/>
            </g>
            <g>
              <path class="cls-9" d="M54.93,12.94c-.67,0-1.16-.38-1.44-1.12-.24-.63-.33-1.54-.24-2.63,0-.04.04-.18.06-.21,0,0,.06-.06.17-.16.27-.24.85-.66,1.64-.66.1,0,.2,0,.3.02l.23.05c.68.15,1.16.48,1.44.98.5.86.25,2,.06,2.6-.05.14-.08.22-.08.22-.01.03-.03.06-.06.08-.61.41-1.15.67-1.63.78-.16.03-.31.05-.45.05Z"/>
              <path class="cls-49" d="M55.12,8.34c.09,0,.18,0,.28.02l.22.04c2.13.48,1.59,2.67,1.37,3.35-.04.13-.07.2-.07.2-.63.42-1.14.66-1.58.76-.15.03-.28.05-.41.05-.67,0-1.06-.43-1.28-1.01-.35-.9-.26-2.17-.23-2.55.01-.06.01-.1.01-.1,0,0,.06-.06.16-.15.25-.22.78-.62,1.53-.62M55.12,7.99c-.85,0-1.46.44-1.76.7-.11.09-.17.16-.17.16-.06.06-.1.15-.1.24,0,.02-.01.06-.01.08-.09,1.12,0,2.05.26,2.7.39,1.02,1.09,1.23,1.6,1.23.15,0,.32-.02.48-.06.51-.12,1.06-.38,1.69-.81.06-.04.1-.09.13-.16,0,0,.03-.08.08-.22.2-.63.46-1.82-.07-2.74-.31-.54-.83-.9-1.55-1.06l-.23-.05c-.13-.02-.24-.03-.35-.03h0Z"/>
            </g>
            <g>
              <path class="cls-8" d="M53.37,9.44c-.07,0-.13-.04-.16-.11-.02-.06-.54-1.61.28-2.86.09-.12.19-.23.29-.35.5-.52,1.06-.77,1.69-.77s1.07.26,1.09.27c.05.04.4.39.58.87.08.18.13.4.13.6,0,.17-.02,1.7-.61,1.7-.08,0-.17-.03-.25-.1-.36-.3-.71-.47-1.06-.53-.07-.01-.14-.02-.21-.02-.52,0-1,.3-1.42.89-.06.06-.09.11-.13.17,0,0-.07.11-.07.11-.03.06-.1.1-.16.1h0Z"/>
              <path class="cls-49" d="M55.47,5.53c.58,0,1.01.25,1.01.25,0,0,.34.34.51.79.07.16.12.35.12.54,0,.72-.15,1.53-.44,1.53-.04,0-.09-.02-.14-.06-.42-.35-.8-.51-1.14-.57-.08-.01-.16-.02-.24-.02-.66,0-1.18.43-1.56.97-.07.07-.12.16-.18.25-.01.03-.03.04-.04.07,0,0-.53-1.52.26-2.71.09-.12.19-.23.29-.35.53-.54,1.08-.69,1.55-.69M55.47,5.18c-.68,0-1.28.27-1.79.79-.12.14-.23.26-.32.38-.88,1.34-.34,2.96-.31,3.03.05.13.16.22.3.23,0,0,.02,0,.02,0,.13,0,.25-.07.31-.19.02-.02.03-.04.04-.07l.03-.04s.06-.09.08-.11c.01-.01.03-.03.04-.04.39-.54.81-.82,1.28-.82.06,0,.12,0,.18.01.32.05.64.22.97.49.11.09.23.14.36.14.71,0,.79-1.31.79-1.88,0-.23-.05-.47-.15-.68-.19-.5-.56-.87-.58-.89-.02-.02-.04-.04-.07-.05-.02-.01-.51-.3-1.18-.3h0Z"/>
            </g>
            <g>
              <path class="cls-5" d="M54.96,18.12c-.7,0-1.19-.38-1.47-1.13-.17-.44-.35-1.25-.24-2.61,0-.04.04-.18.06-.21,0,0,.06-.06.17-.16.2-.19.78-.65,1.63-.65.18,0,.37.02.55.06.72.18,1.18.52,1.46,1.01.5.9.19,2.1.04,2.57-.05.14-.08.22-.08.22-.87.63-1.56.91-2.11.91Z"/>
              <path class="cls-49" d="M55.11,13.53c.16,0,.33.02.51.06.03,0,.06.01.07.01,2.04.53,1.52,2.67,1.3,3.34-.04.13-.07.2-.07.2-.83.57-1.47.8-1.95.8-.7,0-1.09-.44-1.31-1.02-.35-.9-.26-2.16-.23-2.54.01-.06.01-.1.01-.1,0,0,.06-.06.16-.15.24-.23.78-.61,1.52-.61M55.11,13.19h0c-.91,0-1.53.5-1.75.71-.1.09-.17.15-.17.15-.06.06-.1.15-.1.24,0,.02-.01.06-.01.08-.09,1.12,0,2.03.26,2.69.38,1.02,1.1,1.24,1.63,1.24.59,0,1.31-.29,2.15-.86.06-.04.1-.09.12-.16,0,0,.03-.08.08-.22.16-.49.48-1.74-.05-2.7-.29-.54-.79-.9-1.49-1.08,0,0-.01,0-.02,0-.02,0-.05-.01-.08-.02-.19-.04-.38-.06-.56-.06h0Z"/>
            </g>
            <g>
              <path class="cls-6" d="M53.37,14.63c-.07,0-.13-.04-.16-.11-.02-.06-.54-1.61.3-2.86.07-.11.17-.23.28-.35.51-.51,1.08-.76,1.71-.76.65.03,1.06.26,1.07.27.05.04.4.39.58.87.08.19.13.39.13.59,0,.29-.03,1.71-.61,1.71-.09,0-.17-.04-.26-.1-.29-.24-.59-.4-.88-.48-.14-.04-.27-.06-.4-.06-.65,0-1.12.49-1.4.9-.06.06-.09.11-.13.17,0,0-.07.11-.07.11-.03.06-.09.1-.16.1,0,0,0,0,0,0Z"/>
              <path class="cls-49" d="M55.49,10.72s.05,0,.07,0c.54.03.92.25.92.25,0,0,.34.34.51.79.07.16.12.34.12.53,0,.73-.15,1.54-.44,1.54-.05,0-.09-.02-.15-.06-.34-.28-.66-.44-.95-.51-.15-.04-.3-.06-.44-.06-.65,0-1.17.43-1.54.97-.07.07-.12.16-.18.25-.01.03-.03.04-.04.07,0,0-.53-1.52.28-2.71.07-.12.18-.23.28-.35.54-.54,1.11-.69,1.57-.69M55.49,10.37h0c-.67,0-1.29.27-1.81.79-.13.14-.24.27-.33.41-.88,1.31-.33,2.94-.31,3.01.05.13.16.22.3.23,0,0,.02,0,.02,0,.13,0,.25-.07.31-.19.02-.02.03-.04.04-.07l.03-.04s.06-.09.08-.11c.01-.01.03-.03.04-.05.26-.37.68-.82,1.26-.82.11,0,.23.02.35.05.28.07.55.22.82.45.14.12.28.14.36.14.71,0,.78-1.32.78-1.88,0-.23-.05-.45-.15-.67-.19-.5-.56-.87-.58-.89-.02-.02-.05-.04-.07-.05-.02-.01-.46-.26-1.07-.29h-.09Z"/>
            </g>
            <g>
              <path class="cls-4" d="M54.93,23.31c-.66,0-1.16-.38-1.44-1.11-.17-.45-.35-1.26-.24-2.63,0-.04.04-.18.06-.21,0,0,.06-.06.17-.16.2-.19.78-.65,1.63-.65.18,0,.37.02.55.06.72.18,1.19.52,1.46,1.01.49.9.19,2.08.04,2.55-.05.14-.08.22-.08.22-.01.03-.03.06-.06.08-.61.41-1.14.67-1.62.78-.16.04-.32.06-.46.06Z"/>
              <path class="cls-49" d="M55.11,18.72c.16,0,.33.02.51.06.03,0,.06.01.07.01,2.04.53,1.52,2.65,1.3,3.33-.04.13-.07.2-.07.2-.63.42-1.14.66-1.56.76-.15.04-.29.05-.42.05-.67,0-1.06-.44-1.28-1-.35-.92-.26-2.17-.23-2.55.01-.06.01-.1.01-.1,0,0,.06-.06.16-.15.24-.23.78-.61,1.52-.61M55.11,18.38h0c-.91,0-1.53.5-1.76.71-.1.09-.17.15-.17.15-.06.06-.1.15-.1.24,0,.02-.01.06-.01.08-.09,1.12,0,2.03.25,2.7.31.8.87,1.22,1.6,1.22.16,0,.33-.02.5-.06.5-.12,1.05-.38,1.67-.81.06-.04.1-.09.13-.16,0,0,.03-.08.08-.22.2-.61.46-1.77-.05-2.69-.29-.54-.8-.9-1.49-1.08,0,0-.01,0-.02,0-.02,0-.05-.01-.08-.02-.19-.04-.38-.06-.56-.06h0Z"/>
            </g>
            <g>
              <path class="cls-3" d="M53.37,19.82c-.07,0-.13-.04-.16-.11-.02-.07-.56-1.63.3-2.88.1-.13.19-.25.3-.36.46-.48,1.02-.73,1.6-.73.06,0,.12,0,.18,0,.57.02.96.25.98.26.05.04.4.39.58.87.08.19.13.39.13.59,0,.17-.02,1.71-.61,1.71-.09,0-.17-.04-.25-.1-.4-.34-.79-.51-1.17-.53h-.12c-.64,0-1.12.48-1.4.89-.06.06-.09.11-.13.17,0,0-.07.11-.07.11-.03.06-.1.1-.16.1h0Z"/>
              <path class="cls-49" d="M55.41,15.92c.06,0,.11,0,.17,0,.54.01.9.23.9.23,0,0,.34.34.51.79.07.16.12.34.12.53,0,.72-.15,1.54-.44,1.54-.04,0-.09-.02-.14-.06-.47-.39-.89-.55-1.27-.57-.04,0-.08,0-.12,0-.66,0-1.17.43-1.54.97-.07.07-.12.16-.18.25-.01.03-.03.04-.04.07,0,0-.54-1.53.28-2.73.09-.12.18-.23.28-.34.5-.52,1.03-.68,1.48-.68M55.41,15.57h0c-.44,0-1.09.14-1.72.78-.12.12-.21.24-.31.37-.91,1.34-.35,2.98-.33,3.05.05.13.16.22.3.23,0,0,.01,0,.02,0,.13,0,.25-.07.31-.19.02-.02.03-.04.04-.07l.03-.04s.06-.09.08-.11c.01-.01.03-.03.04-.05.38-.54.8-.82,1.26-.82.03,0,.06,0,.1,0,.35.01.71.18,1.08.49.14.12.28.14.37.14.71,0,.78-1.31.78-1.88,0-.23-.05-.45-.15-.67-.19-.5-.56-.87-.58-.89-.02-.02-.04-.04-.07-.05-.05-.03-.46-.27-1.07-.28-.04,0-.11,0-.18,0h0Z"/>
            </g>
            <g>
              <path class="cls-7" d="M54.92,28.49c-.66,0-1.14-.37-1.43-1.1-.17-.45-.35-1.26-.25-2.63,0-.04.04-.18.06-.21,0,0,.06-.06.17-.16.2-.19.78-.65,1.63-.65.17,0,.35.02.53.06.69.15,1.18.48,1.46.98.49.86.25,1.99.05,2.58-.05.14-.08.22-.08.22-.71.53-1.26.78-1.75.86-.14.03-.28.04-.41.04Z"/>
              <path class="cls-49" d="M55.11,23.92c.16,0,.32.02.49.05h.01c2.13.48,1.59,2.65,1.37,3.34-.04.13-.07.2-.07.2-.66.45-1.18.69-1.62.76-.14.03-.26.04-.38.04-.67,0-1.05-.43-1.27-.99-.35-.92-.26-2.17-.23-2.55.01-.06.01-.1.01-.1,0,0,.06-.06.16-.15.24-.23.77-.61,1.52-.61M55.11,23.58c-.92,0-1.53.49-1.76.7-.1.09-.17.15-.17.15-.06.06-.1.15-.1.24,0,.02-.01.06-.01.08-.09,1.12,0,2.03.25,2.7.4,1,1.09,1.21,1.59,1.21.14,0,.29-.02.45-.05.5-.08,1.07-.35,1.74-.81.06-.04.1-.09.12-.16,0,0,.03-.08.08-.22.2-.63.46-1.81-.07-2.72-.31-.54-.83-.9-1.55-1.06-.02,0-.03,0-.05,0-.18-.04-.36-.06-.53-.06h0Z"/>
            </g>
            <g>
              <path class="cls-19" d="M53.37,25.01c-.07,0-.13-.04-.16-.11-.02-.06-.54-1.61.3-2.86.07-.12.17-.24.28-.36.63-.63,1.26-.76,1.68-.76.13,0,.26.01.37.03.43.06.72.23.73.24.04.04.39.38.58.86.08.18.13.4.13.6,0,.17-.02,1.71-.61,1.71-.09,0-.17-.04-.25-.1-.31-.26-.62-.43-.91-.5-.12-.03-.24-.05-.35-.05-.64,0-1.13.5-1.42.91-.06.06-.09.11-.13.17,0,0-.07.11-.07.11-.03.06-.09.1-.16.1,0,0,0,0,0,0Z"/>
              <path class="cls-49" d="M55.47,21.1c.12,0,.24.01.34.03.41.06.67.22.67.22,0,0,.34.32.51.77.07.16.12.35.12.54,0,.72-.15,1.54-.44,1.54-.04,0-.09-.02-.14-.06-.35-.29-.69-.47-.98-.54-.14-.04-.27-.05-.39-.05-.66,0-1.18.45-1.56.98-.07.07-.12.16-.18.25-.01.03-.03.04-.04.07,0,0-.53-1.52.28-2.71.07-.12.18-.23.28-.35.53-.53,1.09-.69,1.54-.69M55.47,20.76c-.45,0-1.13.14-1.78.79-.13.14-.24.27-.33.41-.88,1.31-.33,2.94-.31,3.01.05.13.16.22.3.23,0,0,.02,0,.02,0,.13,0,.25-.07.31-.19.02-.02.03-.04.04-.07l.03-.04s.06-.09.08-.11c.01-.01.03-.03.04-.05.27-.38.71-.84,1.28-.84.1,0,.2.01.31.04.18.05.47.16.84.47.14.12.28.14.36.14.71,0,.78-1.31.78-1.88,0-.23-.05-.47-.15-.68-.19-.5-.57-.86-.59-.88-.02-.02-.04-.03-.06-.04-.03-.02-.34-.2-.8-.27-.12-.02-.26-.03-.39-.03h0Z"/>
            </g>
            <g>
              <path class="cls-20" d="M54.93,33.69c-.42,0-.77-.15-1.04-.45-.72-.79-.71-2.4-.64-3.28,0-.04.04-.18.06-.21l.16-.16c.34-.3.89-.66,1.64-.66.15,0,.3.01.46.04.79.18,1.29.54,1.56,1.07.58,1.14-.04,2.67-.07,2.73-.31.25-.52.38-.73.47-.53.29-1.01.44-1.42.44Z"/>
              <path class="cls-49" d="M55.12,29.1c.14,0,.28.01.43.04.01,0,.04.01.07.01,2.54.58,1.3,3.56,1.3,3.56-.23.16-.44.29-.64.38-.54.3-.99.42-1.35.42-1.75,0-1.56-2.94-1.51-3.54.01-.06.01-.1.01-.1,0,0,.06-.06.16-.16.25-.22.78-.61,1.52-.61M55.12,28.75h0c-.85,0-1.46.44-1.75.7l-.17.17c-.06.06-.1.15-.1.24,0,.02-.01.06-.01.07-.07.92-.08,2.58.69,3.41.31.33.7.5,1.17.5.44,0,.95-.16,1.51-.46.2-.08.41-.22.67-.4.05-.04.1-.09.12-.15.03-.07.68-1.67.06-2.88-.3-.59-.84-.97-1.6-1.15-.01,0-.02,0-.04,0-.02,0-.04-.01-.06-.01-.16-.03-.32-.05-.48-.05h0Z"/>
            </g>
            <g>
              <path class="cls-21" d="M53.38,30.19c-.07,0-.15-.02-.17-.09-.02-.06-.54-1.61.3-2.86.07-.12.17-.24.28-.36.51-.51,1.06-.76,1.67-.76.67.02,1.1.26,1.11.27.05.04.4.38.58.86.08.18.13.39.13.6,0,.17-.02,1.7-.61,1.7-.08,0-.17-.03-.25-.1-.35-.29-.69-.46-1-.52-.09-.02-.18-.03-.27-.03-.64,0-1.12.49-1.41.89l-.17.26c-.03.06-.11.12-.17.12h0Z"/>
              <path class="cls-49" d="M55.46,26.29s.04,0,.06,0c.57.01.96.25.96.25,0,0,.34.32.51.77.07.16.12.35.12.54,0,.72-.15,1.53-.44,1.53-.04,0-.09-.02-.14-.06-.39-.32-.76-.5-1.08-.55-.1-.02-.2-.03-.3-.03-.65,0-1.17.43-1.55.96-.06.09-.12.17-.18.26-.01.03-.03.04-.04.07,0,0-.53-1.52.28-2.71.07-.12.18-.23.28-.35.53-.53,1.07-.69,1.53-.69M55.46,25.95c-.64,0-1.26.27-1.77.79-.13.14-.24.27-.33.41-.88,1.31-.33,2.94-.31,3.01.05.13.16.22.3.23,0,0,.02,0,.02,0,.13,0,.25-.07.31-.19.02-.02.03-.04.04-.07l.06-.09.09-.14c.26-.37.7-.81,1.26-.81.08,0,.15,0,.23.02.29.05.61.22.93.48.11.09.23.14.36.14.71,0,.79-1.31.79-1.88,0-.23-.05-.47-.15-.68-.19-.5-.57-.86-.59-.88-.02-.02-.04-.03-.06-.05-.02-.01-.48-.28-1.13-.3h-.07Z"/>
            </g>
            <path class="cls-12" d="M56.28,33.09c-3.18,1.74-2.92-2.39-2.86-3.12-.01.03-.03.04-.04.07,0,0-.53-1.52.28-2.71-.35-.92-.26-2.17-.23-2.55-.01.03-.03.04-.04.07,0,0-.53-1.52.28-2.71-.35-.92-.26-2.17-.23-2.55-.01.03-.03.04-.04.07,0,0-.54-1.53.28-2.73-.35-.9-.26-2.16-.23-2.54-.01.03-.03.04-.04.07,0,0-.53-1.52.28-2.71-.35-.9-.26-2.17-.23-2.55-.01.03-.03.04-.04.07,0,0-.53-1.52.26-2.71-.34-.92-.25-2.19-.22-2.55-.01.03-.03.04-.04.07,0,0-.64-1.84.55-3.06.23-.23.48-.39.71-.5.01.19.06.38.12.6.31,1.17.85,1.69.98,1.79l.03.03s-.13.09-.26.25c-.15.18-.31.47-.29.85.01.71.51,1.21.51,1.21,0,0-.1.1-.25.28-.26.34-.67.92-.69,1.41-.01.25.07.45.18.63.13.2.29.35.42.44.1.1.19.15.19.15,0,0-.07.07-.18.2-.18.25-.41.66-.34,1.12.12.73.63,1.05.63,1.05,0,0-.06.06-.13.19-.15.22-.32.64-.31,1.34,0,.26.04.48.09.66.07.23.16.41.23.53.15.19.26.26.26.26,0,0-.06.03-.15.1-.15.15-.38.45-.47,1.05-.13.9.5,1.04.5,1.04,0,0-.06.09-.15.23-.26.42-.76,1.33-.67,1.82.01.07.03.13.06.2.07.16.18.31.29.42.25.23.51.35.51.35,0,0-.03.03-.07.07-.16.16-.53.6-.39,1.18.16.74.66.98.66.98,0,0-.06.06-.15.18-.18.25-.5.74-.51,1.36-.01.23.01.44.06.6.04.23.12.39.19.51.07.15.15.22.15.22,0,0-.03.06-.09.16-.12.2-.32.63-.39,1.12-.12.71.35,1.05.35,1.05,0,0-.01.06-.04.15-.1.36-.35,1.28-.26,1.76.01.07.03.15.04.22.04.2.09.36.15.5.06.18.12.26.12.26,0,0,0,.03-.01.1-.04.41-.19,1.88.15,2.93.1.31.32.66.58,1.02Z"/>
            <g>
              <g>
                <path class="cls-22" d="M55.18,41.21s-1.38-.03-1.76-.26c-.23-.13-.42-.46-.52-.7-.18.18-.46.39-.78.4-.61-.05-.69-.21-.69-.57,0-.27.53-1.47,2.02-4.69l.34-.73c-.04-.07-.11-.19-.2-.33-.55-.92-.77-1.52-.65-1.78.04-.1.13-.18.25-.24.07-.02.14-.04.22-.04.23,0,.5.09.66.15.05-.07.12-.16.22-.24.13-.13.31-.22.5-.26.05,0,.11-.01.17-.01.06,0,.12,0,.19.01.39.07.6.23.71.39.15-.14.39-.29.7-.29.07,0,.14,0,.21.02.23.05.34.18.39.28.02.04.03.08.04.11.1-.09.21-.15.33-.15.03,0,.15.03.17.05.04.02.08.06.12.1.31.38-.19,1.08-.77,1.82,0,0-.11.13-.11.14-.04.06-.08.1-.1.13,0,0,0,0,0,0,.02,0,.04.13.08.33l.13.73c.6,3.49.76,4.75.63,4.99-.14.27-.52.38-1.03.46,0,0-.65.05-.7.06h0c-.19,0-.34-.12-.45-.24-.16.33-.28.33-.34.33Z"/>
                <path class="cls-49" d="M54.96,32.12c.05,0,.11,0,.16.01.67.12.67.54.67.54,0,0,.28-.44.76-.44.06,0,.12,0,.18.02.44.1.34.57.25.79.11-.18.35-.53.56-.53.03,0,.06,0,.09.02.03.01.06.04.09.07.25.31-.48,1.21-.83,1.66-.1.13-.18.22-.18.25s.07.39.18.93c.28,1.62.83,4.8.69,5.09-.12.22-.53.31-.9.36-.31.03-.6.04-.7.06-.01,0-.02,0-.03,0-.22,0-.44-.44-.44-.44,0,0-.19.53-.31.53s-1.36-.04-1.68-.23c-.32-.17-.55-.88-.55-.88,0,0-.38.54-.85.55h-.07c-.48-.04-.44-.16-.44-.47,0-.23,1.4-3.25,2.04-4.64.2-.44.34-.71.34-.71,0,0-.1-.18-.25-.41-.31-.51-.76-1.36-.64-1.62.03-.07.09-.12.16-.15.05-.02.1-.02.16-.02.31,0,.73.2.73.2,0,0,.09-.17.26-.32.1-.1.25-.19.42-.22.04,0,.09-.01.14-.01M54.96,31.77c-.07,0-.14,0-.2.02-.23.04-.44.15-.61.31-.06.05-.1.09-.15.14-.17-.06-.4-.12-.6-.12-.1,0-.19.01-.27.04-.23.09-.33.24-.37.34-.06.13-.21.47.67,1.92.06.1.11.18.15.25l-.26.55-.03.08c-1.9,4.1-2.04,4.52-2.04,4.71v.07c0,.43.12.69.75.74h.1c.29,0,.54-.14.74-.29.12.22.29.46.5.57.43.25,1.83.28,1.84.28.12,0,.24-.04.37-.22.1.08.23.14.37.14.02,0,.07,0,.09,0,.03,0,.12-.01.24-.02.12,0,.27-.02.43-.03.48-.07.98-.18,1.17-.55.14-.28.08-1.04-.61-5.08l-.04-.23-.1-.5c-.02-.13-.04-.23-.06-.3.01-.01.02-.03.04-.05l.05-.06.06-.07c.64-.83,1.15-1.55.77-2.02-.07-.07-.12-.12-.2-.16-.06-.04-.15-.06-.24-.06s-.18.02-.26.06c-.08-.12-.22-.25-.46-.31-.09-.02-.17-.03-.26-.03-.27,0-.5.1-.68.22-.15-.14-.37-.26-.69-.32-.09-.01-.16-.02-.22-.02h0Z"/>
              </g>
              <path class="cls-13" d="M56.88,35.44c.28,1.62.83,4.8.69,5.09-.12.22-.53.31-.9.36.03-.28.03-.61,0-.96-.12-1.52-.82-3.84-.82-3.84,0,0-.54,3.68-.7,3.3-.15-.38-.06-3.08-.15-3.08-.1.13-.82,1.62-.98,1.5-.18-.1.2-1.69.06-1.76-.19,0-1.97,3.25-2.04,3.72-.04.26.01.53.07.71h-.07c-.48-.04-.44-.16-.44-.47,0-.23,1.4-3.25,2.04-4.64.2-.44.34-.71.34-.71,0,0-.1-.18-.25-.41-.31-.51-.76-1.36-.64-1.62.03-.07.09-.12.16-.15.35.92,1.11,1.72,1.44,1.46.2-.16-.04-.98-.29-1.6.1-.1.25-.19.42-.22.29.73.71,2.1.88,2.03.22-.09.31-.83.31-.83,0,0,.09.99.34.95.13-.03.74-.92,1.28-1.75.03.01.06.04.09.07.25.31-.48,1.21-.83,1.66-.1.13-.18.22-.18.25s.07.39.18.93Z"/>
              <path class="cls-50" d="M56.88,35.44c-.95.07-2.13.1-3.24-.06.2-.44.34-.71.34-.71h0c.63.07,1.53.13,2.76.03.03.16.09.42.15.74Z"/>
            </g>
            <g>
              <g>
                <g class="cls-14">
                  <path class="cls-1" d="M56.12,8.12c.56-.65.59-1.36.22-2.12.88.38.73,1.96-.22,2.12h0Z"/>
                </g>
                <ellipse class="cls-2" cx="56.42" cy="7.12" rx=".43" ry=".31" transform="translate(41.38 61.97) rotate(-81.86)"/>
                <ellipse class="cls-2" cx="56.02" cy="6.57" rx=".24" ry=".18" transform="translate(41.58 61.1) rotate(-81.86)"/>
              </g>
              <g>
                <g class="cls-14">
                  <path class="cls-1" d="M57.06,10.85c0-.86-.42-1.42-1.19-1.77.92-.27,1.81,1.03,1.19,1.77h0Z"/>
                </g>
                <ellipse class="cls-2" cx="56.65" cy="9.9" rx=".31" ry=".43" transform="translate(3.31 31.38) rotate(-31.85)"/>
                <ellipse class="cls-2" cx="55.99" cy="9.74" rx=".18" ry=".24" transform="translate(3.29 31.01) rotate(-31.85)"/>
              </g>
              <g>
                <g class="cls-14">
                  <path class="cls-1" d="M56.12,13.27c.56-.65.59-1.36.22-2.12.88.38.73,1.96-.22,2.12h0Z"/>
                </g>
                <ellipse class="cls-2" cx="56.42" cy="12.27" rx=".43" ry=".31" transform="translate(36.29 66.39) rotate(-81.86)"/>
                <ellipse class="cls-2" cx="56.02" cy="11.73" rx=".24" ry=".18" transform="translate(36.48 65.52) rotate(-81.86)"/>
              </g>
              <g>
                <g class="cls-14">
                  <path class="cls-1" d="M57.06,16c0-.86-.42-1.42-1.19-1.77.92-.27,1.81,1.03,1.19,1.77h0Z"/>
                </g>
                <ellipse class="cls-2" cx="56.65" cy="15.05" rx=".31" ry=".43" transform="translate(.59 32.16) rotate(-31.85)"/>
                <ellipse class="cls-2" cx="55.99" cy="14.89" rx=".18" ry=".24" transform="translate(.57 31.79) rotate(-31.85)"/>
              </g>
              <g>
                <g class="cls-14">
                  <path class="cls-1" d="M56.12,18.42c.56-.65.59-1.36.22-2.12.88.38.73,1.96-.22,2.12h0Z"/>
                </g>
                <ellipse class="cls-2" cx="56.42" cy="17.42" rx=".43" ry=".31" transform="translate(31.19 70.81) rotate(-81.86)"/>
                <ellipse class="cls-2" cx="56.02" cy="16.88" rx=".24" ry=".18" transform="translate(31.38 69.94) rotate(-81.86)"/>
              </g>
              <g>
                <g class="cls-14">
                  <path class="cls-1" d="M57.06,21.16c0-.86-.42-1.42-1.19-1.77.92-.27,1.81,1.03,1.19,1.77h0Z"/>
                </g>
                <ellipse class="cls-2" cx="56.65" cy="20.2" rx=".31" ry=".43" transform="translate(-2.13 32.93) rotate(-31.85)"/>
                <ellipse class="cls-2" cx="55.99" cy="20.04" rx=".18" ry=".24" transform="translate(-2.15 32.56) rotate(-31.85)"/>
              </g>
              <g>
                <g class="cls-14">
                  <path class="cls-1" d="M56.12,23.57c.56-.65.59-1.36.22-2.12.88.38.73,1.96-.22,2.12h0Z"/>
                </g>
                <ellipse class="cls-2" cx="56.42" cy="22.57" rx=".43" ry=".31" transform="translate(26.09 75.23) rotate(-81.86)"/>
                <ellipse class="cls-2" cx="56.02" cy="22.03" rx=".24" ry=".18" transform="translate(26.28 74.36) rotate(-81.86)"/>
              </g>
              <g>
                <g class="cls-14">
                  <path class="cls-1" d="M57.06,26.31c0-.86-.42-1.42-1.19-1.77.92-.27,1.81,1.03,1.19,1.77h0Z"/>
                </g>
                <ellipse class="cls-2" cx="56.65" cy="25.35" rx=".31" ry=".43" transform="translate(-4.85 33.71) rotate(-31.85)"/>
                <ellipse class="cls-2" cx="55.99" cy="25.19" rx=".18" ry=".24" transform="translate(-4.86 33.34) rotate(-31.85)"/>
              </g>
              <g>
                <g class="cls-14">
                  <path class="cls-1" d="M56.12,28.72c.56-.65.59-1.36.22-2.12.88.38.73,1.96-.22,2.12h0Z"/>
                </g>
                <ellipse class="cls-2" cx="56.42" cy="27.73" rx=".43" ry=".31" transform="translate(20.99 79.66) rotate(-81.86)"/>
                <ellipse class="cls-2" cx="56.02" cy="27.18" rx=".24" ry=".18" transform="translate(21.18 78.79) rotate(-81.86)"/>
              </g>
              <g>
                <g class="cls-14">
                  <path class="cls-1" d="M57.06,31.46c0-.86-.42-1.42-1.19-1.77.92-.27,1.81,1.03,1.19,1.77h0Z"/>
                </g>
                <ellipse class="cls-2" cx="56.65" cy="30.5" rx=".31" ry=".43" transform="translate(-7.57 34.48) rotate(-31.85)"/>
                <ellipse class="cls-2" cx="55.99" cy="30.34" rx=".18" ry=".24" transform="translate(-7.58 34.11) rotate(-31.85)"/>
              </g>
            </g>
          </g>
          <g>
            <g>
              <g>
                <path class="cls-24" d="M51.1,14.56c-.42,0-.79-.05-1.1-.14-.87-.23-1.22-.76-1.36-1.16-.34-.87-.01-1.95.14-2.37.01-.04.07-.14.11-.16,0,0,.08-.04.22-.07.11-.03.3-.06.54-.06.37,0,.95.09,1.6.49.01,0,.1.08.11.09.67.43,1.07.96,1.15,1.56.11.81-.41,1.48-.57,1.67-.03.03-.13.12-.17.13-.24.02-.47.04-.67.04Z"/>
                <path class="cls-49" d="M49.64,10.75c.4,0,.93.1,1.51.47.03.01.05.03.08.06,1.93,1.25.86,2.7.59,3.02-.04.04-.06.07-.06.07-.24.02-.45.04-.66.04-.42,0-.77-.05-1.06-.14-.71-.19-1.09-.6-1.26-1.06-.34-.88.04-1.98.14-2.26.01-.04.03-.07.03-.07,0,0,.06-.03.19-.06.12-.03.29-.06.51-.06M49.64,10.43h0c-.26,0-.46.04-.59.07-.14.03-.23.07-.24.08-.07.03-.13.09-.16.16,0,0-.02.04-.04.11-.15.42-.49,1.54-.13,2.46.15.43.53,1.01,1.47,1.26.32.1.71.15,1.14.15.21,0,.45-.01.69-.04.08,0,.15-.05.21-.11l.06-.07c.17-.2.73-.92.61-1.8-.09-.63-.5-1.2-1.23-1.68-.05-.05-.09-.07-.12-.09-.67-.42-1.28-.51-1.67-.51h0Z"/>
              </g>
              <g>
                <path class="cls-35" d="M52.19,11.98c-.09,0-.21-.03-.33-.18-.21-.26-.41-.47-.62-.63-.38-.29-.77-.44-1.17-.44-.29,0-.58.07-.86.22-.08.04-.14.08-.2.12-.03.04-.08.06-.13.06-.01,0-.03,0-.04,0-.06-.02-.11-.06-.12-.12,0-.02-.29-1.76,1.19-2.22.22-.07.45-.1.69-.1.73,0,1.34.35,1.64.56.21.14.33.26.34.27.04.05.54.8.4,1.39-.09.4-.36,1.09-.78,1.09Z"/>
                <path class="cls-49" d="M50.59,8.83c.66,0,1.22.3,1.55.54.2.13.32.25.32.25,0,0,.48.71.36,1.24-.11.48-.37.97-.62.97-.07,0-.14-.04-.21-.12-.22-.28-.43-.5-.65-.66-.44-.34-.87-.47-1.27-.47-.34,0-.66.1-.93.24-.08.04-.15.09-.22.13-.03,0-.04.01-.05.03,0,0-.28-1.62,1.08-2.04.22-.07.43-.1.64-.1M50.59,8.51h0c-.25,0-.5.04-.73.11-1.29.4-1.41,1.74-1.3,2.4.02.12.11.22.23.25.03,0,.06.01.09.01.06,0,.13-.02.18-.06.02,0,.03-.02.05-.03.06-.04.12-.08.19-.12.25-.13.52-.2.78-.2.37,0,.73.14,1.08.41.2.15.4.35.59.6.16.2.33.24.46.24.48,0,.8-.65.93-1.21.15-.64-.34-1.4-.4-1.49-.01-.02-.02-.03-.04-.04-.01-.01-.15-.15-.37-.29-.3-.21-.94-.59-1.72-.59h0Z"/>
              </g>
              <g>
                <path class="cls-36" d="M50.42,18.83c-.78-.04-1.42-.19-1.89-.42-.6-.31-.96-.77-1.09-1.36-.12-.64.04-1.43.47-2.28,0-.01.05-.08.06-.09.08-.05.14-.07.25-.07.06,0,.15-.02.26-.02.34,0,.88.08,1.48.48.12.07.25.17.38.27.66.55,1.01,1.14,1.04,1.74.04.71-.38,1.26-.63,1.53-.13.11-.22.19-.22.19-.03.02-.06.04-.1.04,0,0,0,0,0,0Z"/>
                <path class="cls-49" d="M48.48,14.74c.33,0,.84.09,1.39.46.11.07.24.16.37.26,1.65,1.39.83,2.58.39,3.03-.11.1-.2.18-.2.18-.8-.04-1.4-.19-1.83-.41-.62-.32-.9-.77-1-1.25-.18-.92.33-1.93.46-2.17.03-.04.04-.06.04-.06,0,0,.04-.01.13-.01h.01c.06-.01.15-.02.25-.02M48.48,14.43h0c-.12,0-.22,0-.3.02,0,0-.01,0-.02,0-.08,0-.15.02-.18.03-.04.02-.09.06-.13.09,0,0-.03.03-.07.11-.46.89-.63,1.71-.49,2.39.14.65.53,1.15,1.17,1.48.49.25,1.15.4,1.96.44,0,0,.01,0,.02,0,.07,0,.14-.03.2-.07,0,0,.09-.08.21-.18.29-.3.74-.89.7-1.66-.04-.65-.41-1.27-1.1-1.85-.14-.11-.28-.21-.4-.29-.63-.42-1.2-.51-1.56-.51h0Z"/>
              </g>
              <g>
                <path class="cls-37" d="M51.21,16.37c-.1,0-.24-.04-.35-.23-.3-.5-.64-.88-1.04-1.11-.28-.16-.58-.25-.88-.25-.22,0-.44.04-.66.13-.02,0-.06.02-.1.04-.05.03-.09.04-.11.05-.03.03-.06.04-.09.04-.02,0-.04,0-.06-.01-.06-.02-.08-.09-.09-.16,0-.05-.04-1.27.85-1.81.18-.12.38-.2.61-.23.11-.02.22-.02.33-.02.29,0,.58.06.85.17.82.3,1.34.95,1.36.98.02.04.06.13.11.28.1.26.25.76.1,1.15-.13.36-.46.98-.85.98Z"/>
                <path class="cls-49" d="M49.64,12.97c.29,0,.55.06.79.15.79.29,1.3.93,1.3.93,0,0,.04.09.09.23.1.26.23.71.1,1.04-.16.45-.46.88-.71.88-.08,0-.15-.04-.21-.15-.34-.58-.72-.95-1.09-1.17-.33-.19-.65-.27-.96-.27-.25,0-.5.05-.72.14h-.01c-.05.03-.11.04-.17.07-.01.01-.04.01-.05.03,0,0-.05-1.17.78-1.66.15-.1.33-.17.55-.2.11-.02.21-.02.31-.02M49.64,12.66c-.12,0-.24,0-.36.03-.25.03-.48.12-.68.25-.96.58-.92,1.88-.92,1.94,0,.13.09.24.21.29.03.01.07.02.1.02.06,0,.12-.02.17-.05.01,0,.03-.02.05-.03.04-.02.07-.03.1-.04,0,0,.02,0,.03,0,.2-.08.41-.12.61-.12.27,0,.54.08.8.23.37.22.7.57.98,1.05.15.26.37.3.48.3.45,0,.82-.59,1-1.09.17-.42,0-.97-.1-1.26-.05-.15-.09-.25-.09-.25-.01-.02-.03-.05-.04-.07-.02-.03-.57-.71-1.44-1.03-.29-.11-.59-.17-.9-.17h0Z"/>
              </g>
              <g>
                <path class="cls-38" d="M48.43,22.75c-.62-.17-1.14-.4-1.55-.68-.64-.42-.99-.99-1.02-1.67-.04-1.09.78-2.07.88-2.18.03-.03.12-.11.17-.11h0s.07,0,.16.02c.14,0,.7.08,1.35.6.18.13.38.33.58.58.58.73.81,1.42.69,2.04-.15.76-.78,1.2-1.05,1.35,0,0-.1.05-.11.05-.02,0-.04.01-.06.01-.01,0-.03,0-.04,0Z"/>
                <path class="cls-49" d="M46.91,18.26s.05,0,.14.01c.23.01.72.13,1.27.57.18.13.37.32.56.55,1.53,1.94.06,2.93-.32,3.15-.05.03-.09.04-.09.04-.65-.17-1.14-.41-1.5-.66-.69-.45-.93-1.01-.95-1.55-.04-.95.65-1.85.84-2.07.04-.04.05-.06.05-.06M46.91,17.94s0,0,0,0c-.09,0-.18.04-.24.11l-.05.06c-.1.11-.96,1.14-.92,2.29.03.74.4,1.34,1.1,1.8.41.29.95.52,1.59.7.03,0,.05.01.08.01.04,0,.08,0,.11-.02,0,0,.06-.02.13-.06.28-.16.96-.63,1.12-1.46.13-.67-.11-1.4-.71-2.17-.21-.26-.42-.47-.62-.61-.68-.54-1.27-.62-1.44-.63-.08-.01-.14-.02-.16-.02h0Z"/>
              </g>
              <g>
                <path class="cls-23" d="M49.75,20.52c-.1,0-.29-.04-.38-.31-.31-.88-.72-1.29-1.02-1.48-.3-.21-.64-.32-1.01-.32-.09,0-.18,0-.27.02l-.18.04s-.13-.01-.16-.04-.09-.07-.08-.12c0-.04.15-1,.86-1.44.22-.16.49-.25.8-.25.05,0,.1,0,.15,0,.41.02.75.18.97.3.86.47,1.29,1.33,1.31,1.37l.05.16c.08.4.13.93-.1,1.28-.22.36-.6.79-.94.79Z"/>
                <path class="cls-49" d="M48.31,16.78s.09,0,.13,0c.34.01.64.13.9.28.83.45,1.25,1.3,1.25,1.3,0,0,.01.04.04.13.05.25.14.82-.08,1.15-.23.38-.57.71-.81.71-.1,0-.18-.06-.23-.2-.28-.8-.67-1.3-1.08-1.56-.36-.25-.74-.34-1.09-.34-.1,0-.2,0-.29.02-.06.01-.13.03-.19.04-.01,0-.04.01-.05.01,0,0,.13-.92.79-1.33.19-.14.43-.22.72-.22M48.31,16.47h0c-.35,0-.65.1-.91.29-.76.47-.91,1.49-.91,1.54-.01.09.01.18.07.25s.15.11.24.11c.03,0,.09-.01.12-.02l.08-.02.11-.02c.05,0,.14-.01.22-.01.34,0,.64.1.91.28.28.18.67.57.96,1.41.09.26.29.42.53.42.52,0,.99-.72,1.08-.87.25-.39.2-.97.12-1.38l-.04-.16s-.01-.04-.02-.05c-.02-.04-.47-.94-1.38-1.44-.23-.13-.59-.3-1.04-.32-.04,0-.09,0-.15,0h0Z"/>
              </g>
              <g>
                <path class="cls-26" d="M45.76,26.26c-1-.34-1.73-.75-2.16-1.21-.45-.46-.59-1.01-.39-1.58.31-.89,1.3-1.54,1.35-1.57.03-.02.06-.03.09-.03,0,0,0,0,.01,0,.03,0,.71.07,1.44.58.28.19.55.45.8.76.53.69.71,1.31.53,1.83-.25.77-1.19,1.09-1.46,1.17-.03,0-.13.03-.18.03,0,0-.02,0-.02,0Z"/>
                <path class="cls-49" d="M44.64,22.04s.66.06,1.36.55c.25.18.52.42.76.73,1.49,1.94-.39,2.63-.85,2.76-.06.01-.1.03-.1.03-1.07-.36-1.73-.77-2.1-1.17-.47-.48-.51-.98-.36-1.41.29-.85,1.28-1.49,1.28-1.49M44.64,21.72c-.06,0-.12.02-.17.05-.04.03-1.09.71-1.41,1.65-.15.44-.2,1.09.43,1.74.44.47,1.19.89,2.22,1.25.03.01.07.02.1.02.04,0,.08,0,.11-.02,0,0,.03,0,.06-.02.4-.11,1.32-.46,1.59-1.28.19-.58,0-1.25-.56-1.98-.25-.32-.54-.59-.83-.8-.76-.54-1.48-.61-1.51-.61,0,0-.02,0-.03,0h0Z"/>
              </g>
              <g>
                <path class="cls-25" d="M47.48,24.3c-.21,0-.35-.13-.4-.36-.15-.7-.42-1.25-.78-1.58-.44-.44-.93-.53-1.28-.53-.08,0-.15,0-.23.01,0,0-.01,0-.02,0-.05,0-.09-.02-.12-.06-.03-.04-.05-.09-.03-.14.01-.05.34-1.24,1.36-1.41.09-.01.18-.02.28-.02.12,0,.24.01.37.04.48.12.9.36,1.24.72.56.56.8,1.24.81,1.27,0,.03.02.14.03.3.01.29,0,.82-.27,1.12-.24.29-.64.64-.97.64Z"/>
                <path class="cls-49" d="M46.27,20.37c.11,0,.22.01.34.03.48.12.86.36,1.16.67.55.54.78,1.21.78,1.21,0,0,.01.1.03.26.01.29-.01.76-.23,1.01-.26.32-.61.59-.85.59-.12,0-.21-.07-.25-.24-.17-.8-.47-1.34-.83-1.66-.42-.42-.92-.57-1.38-.57-.08,0-.17,0-.24.01,0,0,.31-1.14,1.23-1.3.08-.01.16-.02.25-.02M46.27,20.05c-.1,0-.2,0-.3.02-1.12.19-1.47,1.47-1.49,1.53-.03.1,0,.21.07.29.06.07.15.11.24.11.01,0,.02,0,.04,0,.07,0,.14-.01.21-.01.31,0,.77.08,1.16.48.35.32.6.83.74,1.5.07.36.34.49.56.49.38,0,.82-.36,1.09-.7.29-.33.31-.91.3-1.22-.01-.18-.03-.29-.03-.29,0-.02,0-.04-.01-.06-.01-.03-.26-.75-.85-1.33-.36-.38-.8-.63-1.31-.75-.15-.03-.28-.04-.41-.04h0Z"/>
              </g>
              <g>
                <path class="cls-27" d="M41.29,29.03c-.13,0-.2,0-.2,0-.55-.42-.86-.72-1.09-1.01-.8-.96-.93-1.82-.4-2.57.56-.8,1.78-1.2,2.13-1.3.03-.01.12-.03.17-.03.01,0,.03,0,.03,0,0,0,.1.04.24.13.34.21.95.7,1.27,1.61.05.11.09.25.13.41.19.83.1,1.5-.27,1.97-.49.64-1.34.76-1.8.78-.08,0-.15,0-.21,0Z"/>
                <path class="cls-49" d="M41.88,24.27s.08.03.2.12h.01c.32.2.89.67,1.2,1.53.05.12.09.25.13.39.5,2.19-1.14,2.52-1.92,2.55-.08,0-.15,0-.21,0-.12,0-.18,0-.18,0-.41-.34-.74-.64-.98-.95-.86-1.04-.8-1.81-.39-2.38.53-.76,1.69-1.14,2.05-1.24h.01c.05-.01.09-.03.09-.03M41.88,23.95s-.08,0-.11.02c0,0-.02,0-.04.01-.01,0-.03,0-.04,0-.47.14-1.64.54-2.22,1.36-.4.56-.65,1.49.41,2.76.23.29.55.6,1.02.99.05.04.11.06.17.07,0,0,.08,0,.21,0,.06,0,.14,0,.23,0,.48-.02,1.39-.15,1.91-.84.4-.51.49-1.22.3-2.1-.04-.15-.08-.31-.15-.45-.33-.93-.97-1.45-1.31-1.67-.02-.01-.04-.02-.05-.03-.12-.08-.2-.11-.22-.12-.04-.01-.07-.02-.11-.02h0Z"/>
              </g>
              <g>
                <path class="cls-28" d="M44.12,27.83c-.25,0-.42-.06-.52-.18-.05-.06-.11-.18-.08-.35.11-.64.07-1.17-.15-1.61-.23-.52-.68-.9-1.33-1.15-.12-.05-.19-.07-.27-.08-.03,0-.07-.02-.1-.04-.06,0-.1-.03-.12-.09-.03-.06,0-.12.05-.17.03-.03.73-.78,1.75-.79.41,0,.8.1,1.16.31.21.11.42.25.6.43.7.65.89,1.5.95,1.95.01.17.01.28.01.28-.02.08-.26.98-.9,1.24-.37.15-.77.24-1.06.24Z"/>
                <path class="cls-49" d="M43.36,23.53c.33,0,.7.07,1.08.29.23.12.42.26.57.41.67.63.85,1.44.9,1.85.01.16.01.26.01.26,0,0-.23.86-.8,1.09-.33.14-.71.23-1,.23s-.49-.1-.45-.35c.13-.71.05-1.27-.17-1.71-.28-.63-.83-1.01-1.41-1.23h-.01c-.1-.04-.19-.07-.29-.09h-.01s-.04-.03-.06-.03c0,0,.67-.73,1.64-.74M43.36,23.21s0,0,0,0c-1.09.02-1.84.81-1.87.85-.09.09-.11.23-.06.34.04.09.12.16.21.18.05.02.1.04.14.04.03,0,.09.02.18.06.02,0,.04.02.06.02.59.23.99.58,1.2,1.04.21.42.25.91.14,1.52-.04.23.04.39.12.48.13.16.35.24.64.24.31,0,.73-.1,1.12-.26.7-.28.96-1.2.99-1.31,0-.03.01-.05.01-.08,0,0,0-.11-.01-.29-.06-.48-.27-1.38-1-2.06-.19-.18-.41-.34-.64-.46-.37-.21-.79-.33-1.22-.33h0Z"/>
              </g>
              <g>
                <path class="cls-44" d="M37.11,30.72c-.25,0-.46-.03-.59-.05-.09-.02-.15-.03-.15-.03-.6-.64-.95-1.16-1.15-1.65-.31-.77-.23-1.43.23-1.96.69-.86,2.19-1.08,2.48-1.12.02,0,.06,0,.1,0,.03,0,.06,0,.07,0,0,0,.06.03.13.1.01,0,.03.01.04.02.28.24.78.77.98,1.68.04.17.05.36.07.56.04.8-.15,1.42-.55,1.84-.48.5-1.17.61-1.67.61Z"/>
                <path class="cls-49" d="M38.03,26.05s.05.03.13.1h.01c.24.2.74.71.93,1.59.04.16.05.35.06.54.09,1.97-1.21,2.28-2.05,2.28-.24,0-.44-.03-.57-.04-.08-.01-.13-.03-.13-.03-.53-.6-.86-1.11-1.04-1.56-.32-.8-.17-1.37.2-1.79.64-.79,2.02-1.02,2.38-1.06.05-.01.08-.01.08-.01M38.03,25.73s-.09,0-.16.03c-.25.03-1.8.26-2.54,1.17-.49.57-.58,1.28-.25,2.11.2.51.56,1.05,1.1,1.65.04.04.09.08.15.09,0,0,.06.02.15.04.22.03.42.05.63.05.75,0,1.37-.23,1.78-.66.43-.45.63-1.11.59-1.95-.01-.21-.03-.41-.07-.6-.21-.94-.74-1.51-1.03-1.76-.02-.01-.03-.03-.05-.04-.07-.06-.12-.09-.14-.1-.05-.03-.1-.04-.16-.04h0Z"/>
              </g>
              <g>
                <path class="cls-30" d="M39.85,29.88c-.37,0-.61-.08-.72-.25-.05-.08-.1-.2-.03-.39.2-.55.26-1.02.18-1.43-.13-.81-.71-1.27-1.18-1.52-.03,0-.06-.02-.1-.04-.02,0-.11-.04-.12-.05-.05-.03-.12-.1-.12-.15,0-.05-.03-.13.02-.16.03-.02.72-.54,1.61-.54.12,0,.25.01.38.03.34.05.67.19.97.42.34.27.61.59.81.97.44.93.26,1.84.26,1.88-.01.04-.07.15-.17.29-.15.25-.48.69-.94.81-.29.08-.59.12-.85.12Z"/>
                <path class="cls-49" d="M39.38,25.51c.11,0,.23,0,.35.03.29.04.6.16.9.39.36.28.6.6.76.92.42.89.24,1.78.24,1.78,0,0-.05.1-.14.23-.15.25-.46.64-.85.74-.27.07-.56.11-.81.11-.42,0-.72-.12-.61-.42.22-.6.27-1.09.19-1.52-.13-.79-.66-1.31-1.26-1.63h-.01c-.08-.03-.14-.07-.2-.09-.03-.01-.06-.03-.09-.04,0,0,.66-.51,1.52-.51M39.38,25.19h0c-.95,0-1.68.55-1.71.58-.08.06-.13.17-.12.27,0,.11.07.2.16.25,0,0,.06.03.07.04.02,0,.08.04.11.04.01,0,.03.01.04.02.04.02.08.04.12.05,0,0,.01,0,.02,0,.43.24.94.67,1.05,1.38.07.39.01.84-.18,1.36-.07.19-.05.38.05.53.14.21.43.31.85.31.27,0,.59-.04.89-.12.51-.13.87-.61,1.04-.88.1-.14.15-.26.15-.26.01-.02.02-.05.03-.08,0-.04.19-1-.27-1.98-.21-.41-.5-.76-.85-1.03-.32-.25-.68-.4-1.05-.46-.13-.02-.26-.03-.4-.03h0Z"/>
              </g>
              <g>
                <path class="cls-45" d="M32.28,31.86c-.24,0-.5-.03-.76-.09-.22-.05-.34-.09-.34-.09-.37-.51-.59-.93-.74-1.3-.39-1.06-.24-1.89.45-2.46.73-.61,1.9-.74,2.54-.76h.12s.08.02.11.04c0,0,.08.08.2.21.26.32.69,1,.62,2.05,0,0-.01.21-.01.21-.22,1.89-1.47,2.18-2.2,2.18Z"/>
                <path class="cls-49" d="M33.55,27.32s.08.07.19.2c.25.31.65.95.58,1.94,0,.06-.01.13-.01.2-.2,1.69-1.23,2.04-2.04,2.04-.28,0-.54-.04-.72-.08-.2-.04-.32-.09-.32-.09-.29-.45-.51-.86-.65-1.21-.42-1.14-.13-1.84.41-2.28.76-.64,2.05-.71,2.44-.73h.11M33.55,27h-.11c-.81.03-1.92.19-2.65.8-.51.42-1.02,1.22-.5,2.63.16.39.38.81.68,1.27.04.06.09.1.15.12,0,0,.13.05.36.1.27.06.53.09.79.09.78,0,2.12-.3,2.35-2.32,0-.07,0-.09,0-.12,0-.04,0-.08,0-.12.07-1.09-.38-1.81-.66-2.14-.13-.15-.22-.23-.22-.23-.06-.06-.14-.09-.22-.09h0Z"/>
              </g>
              <g>
                <path class="cls-43" d="M35.08,31.35c-.37,0-.85-.06-1.01-.33-.05-.08-.09-.23.02-.41.21-.4.34-.75.39-1.05.12-.77-.16-1.41-.83-1.9-.1-.07-.2-.14-.29-.19-.02,0-.07-.04-.09-.06-.03-.04-.04-.08-.04-.13s.04-.09.08-.11c.03-.02.64-.37,1.4-.37.33,0,.65.07.93.21.22.08.43.23.62.43.27.27.48.59.59.95.37,1,.01,1.95,0,1.99l-.19.26c-.36.42-.72.65-1.07.7-.17.02-.35.04-.52.04Z"/>
                <path class="cls-49" d="M34.71,26.94c.28,0,.57.05.86.19.19.07.39.2.57.39.28.28.46.58.56.89.36.96,0,1.88,0,1.88,0,0-.06.09-.17.22-.2.23-.56.58-.97.64-.16.02-.33.03-.49.03-.57,0-1.05-.15-.86-.5.22-.41.36-.77.41-1.11.15-.96-.29-1.62-.89-2.06-.1-.07-.2-.15-.31-.2-.01-.01-.04-.01-.05-.03,0,0,.59-.35,1.32-.35M34.71,26.62h0c-.81,0-1.46.38-1.48.4-.08.05-.14.13-.15.22-.02.09.01.19.07.26.03.03.08.07.12.09,0,0,0,0,.01,0,.09.05.18.12.27.18.63.46.88,1.03.77,1.75-.04.29-.17.62-.37,1.01-.14.26-.07.46-.01.56.16.27.54.41,1.15.41.17,0,.36-.01.54-.04.39-.06.78-.31,1.16-.75.12-.15.18-.24.18-.24.02-.02.03-.05.04-.07.02-.04.39-1.04,0-2.11-.12-.37-.34-.71-.63-1-.19-.21-.43-.37-.68-.46-.28-.14-.62-.21-.98-.21h0Z"/>
              </g>
              <g>
                <path class="cls-29" d="M27.41,32.34c-.63,0-1.17-.24-1.37-.34l-.03-.2-.06.15s-.08-.05-.09-.09c-.22-.59-.34-1.1-.37-1.55-.07-.96.25-1.66.97-2.08.47-.26,1.07-.4,1.8-.4.41,0,.76.04.93.07.05,0,.17.03.2.07,0,0,.08.09.15.24.21.42.31.9.28,1.39-.01.29-.08.61-.2.96-.55,1.48-1.51,1.79-2.21,1.79Z"/>
                <path class="cls-49" d="M28.27,27.98c.41,0,.74.04.9.07.06.01.1.01.1.01,0,0,.06.07.13.2.13.25.31.7.27,1.31-.01.28-.08.58-.19.92-.5,1.34-1.34,1.68-2.06,1.68-.58,0-1.09-.22-1.3-.33-.06-.04-.1-.06-.1-.06-.22-.58-.33-1.08-.36-1.5-.08-1.02.33-1.6.89-1.94.53-.3,1.18-.38,1.72-.38M28.27,27.66h0c-.76,0-1.39.14-1.88.42-.76.46-1.13,1.23-1.05,2.24.03.46.15.98.37,1.59.03.09.1.15.18.19,0,0,0,0,0,0,0,0,.01,0,.04.02.25.13.82.38,1.48.38.75,0,1.77-.33,2.36-1.89.13-.37.2-.71.21-1.02.03-.51-.07-1.02-.3-1.47-.07-.15-.16-.25-.17-.27-.06-.07-.15-.11-.24-.11,0,0-.05,0-.05-.01-.17-.03-.53-.07-.95-.07h0Z"/>
              </g>
              <g>
                <path class="cls-46" d="M30.34,32.33c-.56-.02-1.27-.17-1.42-.52-.04-.08-.07-.25.1-.44.24-.28.43-.55.58-.84.38-.79.27-1.52-.32-2.16-.07-.08-.14-.15-.21-.2-.03-.04-.08-.13-.06-.18.01-.05.02-.12.07-.14.02,0,.45-.16.99-.16.37,0,.71.07,1,.21.33.13.62.38.84.73.37.58.47,1.25.3,1.95-.13.6-.4,1.02-.42,1.04l-.13.12c-.19.15-.73.6-1.29.6,0,0-.03,0-.03,0Z"/>
                <path class="cls-49" d="M30.07,27.85c.29,0,.62.05.93.19.29.12.56.34.78.67.41.64.41,1.3.28,1.82-.13.58-.39.99-.39.99,0,0-.04.03-.1.09-.21.17-.71.55-1.18.55,0,0-.02,0-.03,0-.76-.03-1.56-.29-1.21-.7.27-.31.46-.6.6-.88.47-.99.17-1.78-.34-2.33-.08-.09-.15-.16-.23-.22l-.04-.04s.41-.15.94-.15M30.07,27.54c-.57,0-1.03.16-1.05.17-.1.04-.17.12-.2.22-.03.1,0,.21.07.29l.04.04s.03.03.05.04c.06.05.12.11.18.18.54.59.64,1.26.3,1.99-.14.27-.32.54-.55.8-.16.19-.21.41-.12.61.23.53,1.25.6,1.56.62h0c.65,0,1.23-.47,1.42-.62.06-.06.09-.08.1-.08.03-.02.05-.05.07-.08.01-.02.3-.46.44-1.1.18-.73.07-1.45-.32-2.06-.25-.38-.56-.65-.93-.8-.3-.14-.66-.22-1.05-.22h0Z"/>
              </g>
              <g>
                <path class="cls-34" d="M22.74,32.13c-1.11,0-2.07-.67-2.11-.7-.03-.02-.05-.05-.06-.09l-.02-.1c-.14-.76-.14-1.35-.03-1.84.14-.78.57-1.31,1.27-1.59.34-.14.76-.22,1.22-.22.62,0,1.2.13,1.48.21.07.02.12.03.12.03.11.09,1.17,1.27.49,2.68,0,.04-.04.09-.07.14-.19.34-.4.62-.63.82-.46.43-1.02.65-1.66.65Z"/>
                <path class="cls-49" d="M23.01,27.75c.64,0,1.21.14,1.44.21.06.01.1.03.1.03,0,0,1.04,1.14.41,2.46-.01.04-.04.09-.06.13-.18.32-.38.58-.6.77-.49.46-1.03.61-1.55.61-1.08,0-2.02-.67-2.02-.67-.01-.04-.01-.09-.03-.12-.13-.73-.13-1.3-.03-1.75.15-.82.61-1.25,1.17-1.47.37-.15.78-.21,1.16-.21M23.01,27.44h0c-.49,0-.92.08-1.29.23-.74.29-1.2.87-1.36,1.71-.11.5-.11,1.11.02,1.86,0,.02.01.05.02.07,0,.01,0,.04.01.08.02.07.06.13.12.17.04.03,1.04.73,2.21.73.68,0,1.28-.24,1.77-.7.24-.21.46-.5.66-.85.02-.04.06-.1.08-.17.7-1.49-.42-2.74-.47-2.8-.03-.04-.08-.06-.12-.08,0,0-.05-.02-.14-.04-.28-.08-.87-.21-1.51-.21h0Z"/>
              </g>
              <g>
                <path class="cls-32" d="M25.08,32.36c-.05,0-.11,0-.16-.01-.16-.03-.32-.04-.45-.06-.38-.04-.64-.07-.71-.26-.06-.16.05-.31.14-.41.09-.11.19-.22.26-.34.19-.26.33-.53.43-.85.3-.88.19-1.83-.26-2.37-.02-.03-.04-.06-.04-.1-.04-.04-.04-.07-.02-.12.02-.05.07-.06.12-.08.01,0,.29-.07.67-.07.46,0,1.11.09,1.59.54.19.2.32.39.42.62.12.3.18.54.18.76.11,1.19-.74,2.14-.78,2.18-.02.02-.11.1-.28.19-.42.24-.8.37-1.12.37Z"/>
                <path class="cls-49" d="M25.06,27.85c.45,0,1.05.09,1.48.5.15.16.28.34.38.57.1.25.17.48.17.7.1,1.15-.74,2.07-.74,2.07,0,0-.09.07-.24.16-.25.14-.66.34-1.04.34-.05,0-.09,0-.13,0-.74-.12-1.3-.04-.93-.47.1-.12.2-.23.28-.36.2-.28.34-.57.45-.88.33-.98.18-1.97-.29-2.52,0-.01-.01-.03-.03-.04,0,0,.27-.06.64-.06M25.06,27.54h0c-.4,0-.7.07-.71.07-.11.03-.2.11-.23.21-.03.09-.01.2.04.28.01.02.03.05.04.07.42.5.51,1.39.23,2.22-.1.3-.23.56-.4.79-.08.13-.17.24-.26.34-.07.08-.27.31-.17.57.11.28.42.31.84.36.13.01.28.03.44.06.06,0,.12.01.18.01.35,0,.75-.13,1.19-.39.18-.1.28-.19.28-.19.07-.07.97-1.07.85-2.34,0-.22-.06-.48-.19-.79-.11-.25-.25-.46-.45-.67-.53-.5-1.23-.6-1.71-.6h0Z"/>
              </g>
              <g>
                <path class="cls-31" d="M17.2,30.48c-1.12,0-1.75-.85-1.92-1.1-.04-.05-.07-.09-.08-.11-.01-.03-.02-.07,0-.1.18-.75.44-1.35.79-1.83.47-.65,1.09-1.01,1.81-1.04.06,0,.12,0,.17,0,1.19,0,2.27.77,2.39.85.05.03.14.13.14.19,0,0,0,.08-.01.21-.02.3-.17,1.09-.99,1.86-.1.1-.19.19-.3.26-.69.55-1.37.83-2.01.83Z"/>
                <path class="cls-49" d="M17.98,26.44c1.05,0,2.04.63,2.3.82.05.04.08.06.08.06,0,0,0,.07-.01.19-.03.32-.18,1.05-.94,1.76-.09.09-.18.18-.28.25-.75.59-1.39.8-1.92.8-1.02,0-1.62-.77-1.78-1.03-.05-.06-.06-.09-.06-.09.19-.79.46-1.36.76-1.78.5-.69,1.11-.95,1.69-.98.06,0,.11,0,.17,0M17.98,26.12c-.06,0-.12,0-.19,0-.76.04-1.43.42-1.93,1.11-.36.5-.63,1.12-.81,1.89-.02.07-.01.14.02.2.01.03.05.09.12.17.15.24.83,1.14,2.02,1.14.67,0,1.38-.29,2.11-.87.1-.07.21-.17.31-.27.86-.8,1.01-1.64,1.03-1.97.01-.13.01-.21.01-.21,0-.11-.06-.22-.16-.27,0,0-.04-.03-.05-.04-.12-.09-1.25-.88-2.49-.88h0Z"/>
              </g>
              <g>
                <path class="cls-33" d="M19.52,31.63c-.28,0-.51-.05-.69-.15-.45-.24-.97-.65-.95-1.02,0-.1.05-.27.32-.37.62-.23,1.08-.5,1.42-.83.63-.6.65-1.27.57-1.72-.01-.08-.04-.16-.06-.23-.04-.05-.04-.12-.01-.18.03-.05.09-.09.15-.09,0,0,0,0,.01,0,.04,0,1.12.12,1.68.82.25.3.37.67.35,1.08,0,.1-.01.2-.03.29-.17,1.04-1.02,1.75-1.5,2.08l-.28.15c-.05.02-.51.16-.99.16Z"/>
                <path class="cls-49" d="M20.26,27.2s1.04.1,1.58.76c.2.25.33.57.32.98,0,.1-.01.19-.03.28-.17,1.01-1,1.68-1.44,1.97-.17.09-.27.15-.27.15,0,0-.46.14-.91.14-.22,0-.44-.03-.61-.13-.64-.34-1.18-.9-.65-1.11.67-.25,1.14-.54,1.48-.86.62-.6.72-1.28.61-1.87-.01-.09-.04-.18-.06-.25,0-.01,0-.04-.01-.06M20.26,26.89c-.12,0-.23.07-.28.17-.04.08-.05.17-.02.24,0,.02,0,.04.01.06.02.06.04.12.05.19.12.62-.05,1.15-.52,1.59-.32.31-.77.57-1.37.79-.36.14-.42.4-.42.51-.03.58.85,1.08,1.03,1.17.2.11.45.16.76.16.5,0,.99-.15,1.01-.15.02,0,.04-.02.06-.03,0,0,.1-.06.26-.14.54-.36,1.42-1.1,1.6-2.2.02-.11.03-.21.03-.33.01-.45-.12-.85-.39-1.18-.61-.75-1.74-.87-1.79-.87-.01,0-.02,0-.03,0h0Z"/>
              </g>
              <g>
                <path class="cls-40" d="M12.94,28.04c-1.2,0-1.78-.9-1.97-1.28l-.07-.15s-.02-.08,0-.12c.24-.58.51-1.05.83-1.43.57-.74,1.27-1.12,2.08-1.12h.11c1.17.06,2.15.92,2.4,1.16.01,0,.02,0,.03.02.03.04.12.15.11.2l-.04.2c-.11.4-.3.76-.57,1.09-.31.34-.65.61-1.05.85-.67.4-1.3.6-1.86.6Z"/>
                <path class="cls-49" d="M13.8,24.09s.07,0,.1,0c1.12.06,2.07.89,2.33,1.14h.01s.05.04.05.04c0,0-.01.07-.04.19v.03c-.06.22-.2.58-.53.99,0,0-.01.01-.03.03-.23.25-.55.53-.98.79-.71.42-1.3.58-1.78.58-1.11,0-1.65-.84-1.83-1.19-.04-.09-.06-.15-.06-.15.24-.58.51-1.04.8-1.39.62-.8,1.31-1.07,1.96-1.07M13.8,23.78c-.86,0-1.6.4-2.21,1.19-.32.38-.59.86-.84,1.46-.03.08-.03.17,0,.25l.06.15c.17.34.79,1.38,2.12,1.38.59,0,1.25-.21,1.94-.63.41-.25.76-.53,1.05-.84,0,0,.03-.04.04-.04.28-.35.48-.72.59-1.1,0-.03.01-.06.01-.09.02-.09.03-.16.03-.16.02-.09-.02-.19-.07-.26,0,0-.02-.03-.1-.09-.01,0-.02-.02-.03-.02-.29-.27-1.29-1.12-2.48-1.18-.04,0-.08,0-.12,0h0Z"/>
              </g>
              <g>
                <path class="cls-39" d="M15.12,29.46c-.44,0-.77-.08-1-.25-.4-.29-.85-.75-.78-1.12.02-.12.11-.27.38-.33.93-.23,1.6-.6,2-1.11.26-.34.39-.73.39-1.16,0,0,0-.18-.01-.2,0-.02-.01-.04-.01-.06,0-.05.02-.14.06-.17.03-.03.08-.08.12-.08,0,0,0,0,.01,0,.06.01,1.42.34,1.69,1.41.06.23.07.46.01.71-.09.45-.31.87-.65,1.23-.65.72-1.52,1.05-1.56,1.06-.03,0-.15.02-.33.04-.09,0-.2.01-.32.01Z"/>
                <path class="cls-49" d="M16.23,25.15s1.32.31,1.58,1.3c.05.19.06.39.01.64-.09.47-.32.85-.61,1.15-.64.7-1.5,1.02-1.5,1.02,0,0-.11.01-.29.03-.09,0-.19.01-.3.01-.31,0-.67-.05-.91-.22-.57-.41-1.03-1.04-.46-1.17,1.08-.26,1.72-.69,2.09-1.17.31-.41.42-.85.42-1.25v-.03c0-.07-.01-.16-.01-.23h-.01v-.09M16.23,24.83c-.07,0-.14.02-.2.07-.08.06-.12.15-.12.25v.09s0,.07.02.1c0,.01,0,.03,0,.04,0,.03,0,.06,0,.09,0,.42-.12.78-.36,1.09-.36.48-1.01.83-1.91,1.05-.37.08-.47.32-.49.46-.11.55.62,1.12.84,1.28.25.18.62.28,1.09.28.12,0,.23,0,.33-.01.19-.02.31-.03.31-.03.02,0,.05,0,.07-.02.04-.01.94-.36,1.63-1.1.36-.38.59-.82.69-1.31.06-.27.05-.53-.02-.78-.3-1.16-1.75-1.51-1.81-1.52-.02,0-.05,0-.07,0h0Z"/>
              </g>
              <g>
                <path class="cls-41" d="M9.04,25.33c-1.35,0-1.89-1.1-2.03-1.44-.03-.06-.04-.12-.04-.12-.01-.04,0-.08.01-.12.27-.53.54-.95.84-1.29.62-.73,1.32-1.1,2.1-1.1.09,0,.18,0,.26.01,1.25.13,2.23,1.16,2.34,1.28.04.04.1.15.09.2,0,0-.01.05-.04.15,0,.02,0,.04-.01.06,0,0,0,.01,0,.02-.12.34-.43.97-1.21,1.51-.16.11-.33.21-.51.31-.66.34-1.25.51-1.79.51Z"/>
                <path class="cls-49" d="M9.92,21.43c.08,0,.17,0,.25.01,1.11.12,2.02.99,2.24,1.23.04.04.05.06.05.06,0,0-.01.06-.05.18.01.01,0,.01,0,.01-.1.31-.38.92-1.16,1.46-.15.1-.32.2-.5.31-.68.36-1.25.49-1.71.49-1.25,0-1.75-1.01-1.88-1.34-.03-.06-.04-.1-.04-.1.27-.53.53-.93.81-1.25.66-.79,1.35-1.05,1.98-1.05M9.92,21.11c-.82,0-1.57.39-2.22,1.16-.3.34-.58.77-.85,1.31-.04.07-.04.16-.02.23,0,0,.02.06.05.14.14.35.72,1.53,2.17,1.53.56,0,1.18-.18,1.85-.53.2-.11.37-.22.53-.32.77-.54,1.11-1.14,1.27-1.58,0,0,0-.01,0-.02.01-.03.02-.07.03-.1.03-.1.04-.15.04-.15.02-.1,0-.2-.07-.28l-.05-.06c-.12-.13-1.14-1.19-2.44-1.33-.09,0-.19-.01-.28-.01h0Z"/>
              </g>
              <g>
                <path class="cls-47" d="M11.1,26.85c-.48-.02-.85-.12-1.08-.29-.39-.31-.8-.8-.71-1.16.02-.1.11-.27.39-.32.9-.17,1.56-.47,1.97-.9.45-.44.56-.93.57-1.27,0,0,0-.03,0-.04,0-.05,0-.12,0-.18,0-.05.02-.15.06-.18.04-.03.08-.08.12-.08,0,0,0,0,.01,0,.06.02,1.52.44,1.62,1.64.01.19,0,.37-.06.56-.12.47-.4.9-.81,1.27-.68.64-1.51.9-1.55.91-.02,0-.17.03-.38.03h-.17Z"/>
                <path class="cls-49" d="M12.41,22.59s1.41.39,1.5,1.5c.01.16,0,.32-.05.51-.13.5-.42.89-.76,1.2-.66.63-1.49.88-1.49.88,0,0-.14.02-.34.02-.05,0-.1,0-.16,0-.32-.01-.74-.07-.99-.26-.55-.44-.95-1.09-.38-1.2,1-.19,1.65-.53,2.06-.95.42-.41.6-.9.61-1.37,0,0,.01,0,0-.01.01-.07.01-.16,0-.23v-.07M12.41,22.28c-.07,0-.14.02-.19.06-.08.06-.13.15-.13.25v.07s0,.04,0,.05c0,.04,0,.09,0,.13,0,.02,0,.04,0,.06,0,.31-.11.75-.51,1.15-.4.41-1.03.7-1.9.86-.37.07-.48.3-.52.43-.14.57.61,1.2.76,1.32.27.2.66.31,1.18.33.06,0,.12,0,.17,0,.22,0,.38-.02.38-.02.09-.02.96-.29,1.66-.96.43-.39.72-.84.85-1.35.06-.21.08-.41.06-.61-.11-1.31-1.67-1.76-1.73-1.78-.03,0-.06-.01-.09-.01h0Z"/>
              </g>
              <g>
                <path class="cls-42" d="M5.46,22.23c-1.3,0-1.81-.87-2-1.39-.08-.24-.11-.41-.11-.41,0-.04,0-.08.03-.12.44-.62.89-1.1,1.33-1.42.55-.4,1.12-.61,1.68-.61.23,0,.46.03.69.1.99.27,1.7,1.13,1.95,1.49,0,0,.06.09.07.1.02.04.02.08,0,.12,0,0-.02.06-.09.18,0,.02,0,.04-.01.06,0,.02-.02.03-.03.05-.22.38-.65.9-1.45,1.3-.17.08-.34.15-.52.22-.57.21-1.09.32-1.54.32Z"/>
                <path class="cls-49" d="M6.38,18.44c.23,0,.44.04.64.1,1,.28,1.69,1.18,1.87,1.43.04.04.05.07.05.07,0,0-.03.07-.1.2.01.01.01.03,0,.03-.18.31-.57.85-1.4,1.27h-.01c-.15.07-.32.15-.5.22-.59.22-1.08.31-1.48.31-1.2,0-1.67-.79-1.85-1.29-.08-.22-.1-.38-.1-.38.45-.63.88-1.08,1.3-1.39.57-.42,1.1-.58,1.58-.58M6.38,18.13h0c-.59,0-1.19.21-1.77.64-.46.34-.92.83-1.37,1.46-.05.07-.07.15-.05.23,0,.02.03.2.12.43.2.56.75,1.5,2.15,1.5.47,0,1.01-.11,1.59-.33.18-.07.34-.14.48-.21.02,0,.04-.01.06-.02.82-.42,1.27-.96,1.5-1.35.02-.02.04-.05.05-.07.01-.02.02-.05.02-.08.06-.11.08-.18.08-.18.02-.07.02-.16,0-.23-.01-.03-.04-.08-.1-.15-.25-.35-.98-1.24-2.02-1.53-.24-.07-.48-.11-.73-.11h0Z"/>
              </g>
              <g>
                <path class="cls-48" d="M7.46,24.01s-.12,0-.31-.02c-.27-.02-.91-.11-1.23-.44-.33-.35-.66-.88-.53-1.23.04-.12.16-.26.44-.28.77-.05,1.39-.21,1.84-.48.68-.4.93-.93,1.01-1.31,0-.02,0-.05.01-.07.02-.06.04-.13.04-.21,0-.04.01-.08.04-.11,0-.05.01-.08.06-.11.02-.01.03-.02.05-.02.03,0,.05.01.08.02.06.02,1.34.56,1.36,1.68,0,.23-.05.46-.15.69-.25.58-.72.98-1.06,1.21-.77.51-1.59.66-1.62.67,0,0-.02,0-.03,0Z"/>
                <path class="cls-49" d="M8.91,19.91s1.25.51,1.26,1.53c0,.19-.04.39-.14.63-.22.5-.61.88-1,1.14-.75.5-1.56.64-1.56.64,0,0-.11,0-.29-.01-.33-.03-.88-.13-1.13-.39-.48-.51-.78-1.2-.19-1.24.83-.06,1.45-.23,1.91-.5.65-.38.98-.9,1.09-1.43.01,0,.01-.01,0-.03.04-.09.05-.19.05-.28.01-.01.01-.04.01-.06M8.91,19.59c-.06,0-.12.02-.18.05-.08.05-.13.13-.14.23,0,.03-.01.06-.01.1,0,.06,0,.12-.02.15-.02.04-.03.08-.03.12-.08.35-.31.83-.94,1.19-.43.25-1.03.4-1.77.45-.39.03-.53.25-.58.38-.2.53.38,1.2.56,1.39.36.37,1.05.47,1.33.49.19.02.31.02.32.02h0s.04,0,.06,0c.04,0,.89-.16,1.68-.69.36-.24.85-.66,1.12-1.28.11-.26.17-.5.17-.75-.02-1.22-1.4-1.8-1.46-1.82-.04-.02-.08-.02-.12-.02h0Z"/>
              </g>
              <g>
                <path class="cls-16" d="M2.96,19.07c-1.38,0-1.89-1.07-2.05-1.53-.01-.05-.03-.21,0-.25.36-.52.73-.92,1.09-1.19.47-.38.95-.57,1.43-.57.08,0,.15,0,.22.01,1.28.11,2.08,1.42,2.11,1.48.02.13-.06.89-.93,1.47-.31.21-.64.35-.99.44-.31.09-.61.13-.88.13Z"/>
                <path class="cls-49" d="M3.42,15.7c.07,0,.14,0,.2.01,1.22.1,2,1.4,2,1.4,0,0-.06.71-.88,1.25-.24.16-.55.32-.94.42-.31.09-.59.13-.84.13-1.33,0-1.79-1.08-1.9-1.42-.01-.06-.03-.1-.03-.1.37-.53.72-.9,1.06-1.15.48-.39.93-.54,1.33-.54M3.42,15.38c-.52,0-1.03.2-1.53.61-.36.27-.74.68-1.12,1.22-.06.08-.07.18-.05.27,0,0,.01.04.02.08.18.53.73,1.67,2.21,1.67.29,0,.6-.05.93-.14.36-.09.7-.25,1.03-.46.93-.62,1.01-1.45,1.02-1.49,0-.07,0-.13-.04-.19-.04-.06-.88-1.44-2.24-1.55-.07,0-.15-.01-.23-.01h0Z"/>
              </g>
              <g>
                <path class="cls-17" d="M.83,17.71s-.1-.02-.13-.06c-.01-.02-1.41-1.88.32-3.64.36-.37.87-.72,1.52-1.04.02-.01.05-.02.07-.02.03,0,.06,0,.08.02.02.01,1.8,1.17,1.12,2.72-.23.48-.53.83-.94,1.12-.03.02-.07.03-.1.03-.59.47-1.36.71-1.66.8-.15.05-.25.06-.25.06,0,0-.02,0-.03,0Z"/>
                <path class="cls-49" d="M2.61,13.11s1.69,1.08,1.06,2.52c-.01.03-.03.04-.04.07-.19.41-.5.73-.85.98h-.01c-.62.45-1.34.7-1.7.8-.14.04-.23.06-.23.06,0,0-1.35-1.75.31-3.43.34-.35.83-.69,1.48-1.01M2.61,12.8s-.1.01-.14.03c-.67.33-1.18.68-1.56,1.07-1.83,1.85-.35,3.82-.33,3.84.06.08.16.12.25.12.02,0,.03,0,.05,0,0,0,.11-.02.27-.07.29-.08,1.06-.33,1.75-.82.02,0,.04-.02.05-.03.44-.3.76-.67.96-1.1.02-.03.03-.05.04-.08.59-1.34-.51-2.49-1.18-2.92-.05-.03-.11-.05-.17-.05h0Z"/>
              </g>
              <g>
                <path class="cls-18" d="M4.33,21.03s-.37,0-.76-.09c-.36-.08-.63-.21-.79-.38-.36-.38-.53-.99-.38-1.37.09-.22.26-.34.5-.35.85-.05,1.5-.22,1.96-.51.6-.39.73-.95.77-1.4,0-.05.03-.09.08-.12.03-.02.05-.02.08-.02.02,0,.04,0,.06.01.06.02,1.42.58,1.35,1.76,0,.2-.05.41-.14.61-.29.64-.78,1.03-1.14,1.25-.74.48-1.51.61-1.54.62,0,0-.02,0-.03,0Z"/>
                <path class="cls-49" d="M5.78,16.93s1.31.53,1.25,1.6c0,.18-.04.36-.13.55-.24.53-.65.92-1.08,1.18-.72.47-1.49.6-1.49.6,0,0-.34,0-.72-.09-.27-.06-.55-.16-.71-.34-.47-.5-.57-1.43.01-1.46.95-.06,1.6-.26,2.03-.54.61-.39.79-.95.84-1.52M5.78,16.62c-.06,0-.12.02-.17.05-.09.05-.14.14-.15.24-.06.62-.26,1-.7,1.28-.43.27-1.06.44-1.88.49-.29.01-.52.18-.63.45-.18.44,0,1.12.41,1.54.19.2.48.34.87.43.41.09.78.09.79.09.02,0,.04,0,.05,0,.03,0,.84-.15,1.61-.64.37-.22.89-.64,1.2-1.32.1-.22.16-.45.16-.69.08-1.27-1.38-1.87-1.45-1.9-.04-.02-.08-.02-.12-.02h0Z"/>
              </g>
            </g>
            <path class="cls-13" d="M4.75,18.36c-.36-.01-1.04-.1-1.44-.53-.55-.61-.45-1.12-.45-1.12,0,0-.04,0-.09-.03h-.01c-.14-.06-.41-.18-.67-.45-.31-.29-.62-.76-.83-1.5-.05-.2-.1-.41-.13-.61.34-.35.83-.69,1.48-1.01,0,0,1.69,1.08,1.06,2.52-.01.03-.03.04-.04.07,1.22.1,2,1.4,2,1.4,0,0-.06.71-.88,1.25Z"/>
            <path class="cls-12" d="M44.64,22.04s.66.06,1.36.55c-.62.67-.74,1.59-.74,1.59,0,0-.05.01-.25.04-.13.03-.34.06-.66.12-.31.06-.51.32-.64.6-.11.23-.18.48-.2.67-.03.18-.04.29-.04.29,0,0-.06,0-.18.01-.36.03-1.22.2-1.89.93-.1.09-.19.2-.28.32-.41.58-.71.73-.99.74-.22.01-.43-.07-.7-.13-.1-.03-.2-.04-.33-.04-.05-.01-.1-.01-.17-.01-.95,0-1.73,1.11-1.73,1.11,0,0-.1-.34-.5-.42-.13-.01-.27-.01-.43.01-.31.06-.62.26-.9.5-.41.34-.7.71-.7.71,0,0-.01-.03-.04-.06-.05-.04-.14-.1-.31-.12-.14-.03-.34-.01-.61.03-.85.16-1.39,1.24-1.49,1.24-.04,0-.09-.09-.18-.19-.13-.16-.34-.39-.69-.39-.19,0-.48.09-.78.18-.33.12-.65.23-.85.28-.15.03-.23.01-.17-.09.13-.2.13-.63.09-.93-.01-.23-.05-.41-.05-.41,0,0-.75.58-1.36.67-.6.09-1.06-.31-1.06-.31,0,0-.04.03-.1.09-.19.15-.64.44-1.44.67-.2.06-.45.1-.7.16-.08,0-.14.01-.22.03-.05,0-.09.01-.14.01-1.87.23-2.19-1.4-2.19-1.4,0,0-.09.06-.28.12-.27.1-.72.2-1.46.22-.15,0-.32,0-.51-.01-.15,0-.31-.03-.43-.04-.11-.03-.23-.06-.33-.1-1.07-.35-1.48-1.3-1.48-1.3,0,0-.25.31-.71.26-.13,0-.27-.03-.42-.09-.28-.15-.51-.42-.67-.73-.13-.25-.23-.5-.28-.67-.06-.16-.09-.28-.09-.28,0,0-.01,0-.03.01l-.03.03c-.13.07-.59.32-1.25.32-.79,0-1.09-1.06-1.09-1.06,0,0-.1.03-.27.03-.24.03-.65-.01-1-.34-.11-.1-.19-.2-.24-.31-.25-.44-.05-.88-.05-.88,0,0-.23.06-.55.09-.37.03-.86.01-1.23-.2-.69-.42-.61-1.01-.61-1.01,0,0-.15.06-.38.04-.19-.01-.46-.07-.74-.28-.15-.12-.27-.28-.34-.45-.14-.28-.18-.58-.19-.77-.01-.13-.01-.22-.01-.22,0,0-.11.03-.29.06h-.01c-.28.04-.7.06-.93-.13-.38-.29-.1-1.23-.1-1.23,0,0-.25.13-.59.09-.23-.01-.5-.13-.74-.44-.22-.29-.29-.57-.28-.82,0-.26.08-.47.14-.57.61-.39.79-.95.84-1.52,0,0,1.31.53,1.25,1.6,1,.28,1.69,1.18,1.87,1.43.01-.01.01-.04.01-.06,0,0,1.25.51,1.26,1.53,1.11.12,2.02.99,2.24,1.23v-.07s1.41.39,1.5,1.5c1.12.06,2.07.89,2.33,1.14v-.09s1.32.31,1.58,1.3c1.11-.07,2.19.61,2.47.82,0-.01,0-.04-.01-.06,0,0,1.04.1,1.58.76.98-.41,2.24-.1,2.61,0,0-.01-.01-.03-.03-.04,0,0,1.32-.31,2.12.44.93-.53,2.25-.36,2.62-.31l-.04-.04s1-.36,1.87.04c.76-.64,2.05-.71,2.44-.73-.01-.01-.04-.01-.05-.03,0,0,1.13-.67,2.19-.16.64-.79,2.02-1.02,2.38-1.06-.03-.01-.06-.03-.09-.04,0,0,.85-.66,1.87-.48.53-.76,1.69-1.14,2.05-1.24-.03-.01-.04-.03-.06-.03,0,0,.67-.73,1.64-.74.29-.85,1.28-1.49,1.28-1.49Z"/>
            <path class="cls-13" d="M52.14,9.37c-.19.39-.48.99-.8,1.68-.03.07-.06.15-.1.23-.28.6-.57,1.25-.8,1.85-.17.42-.31.82-.39,1.14-.08.23-.11.44-.13.58v.04l-.04.31c-.08.71-.24,1.33-.52,1.87-.15.32-.33.61-.56.9-.06.09-.13.19-.19.29s-.13.22-.17.34c-.05.07-.09.16-.11.25-.29.71-.38,1.43-.38,1.43,0,0,.01.38-.18.8-.14.31-.37.63-.79.86-.08.04-.15.09-.24.13-.11.04-.22.1-.32.18-.5-.5-1.11-.61-1.63-.55,0,0,.31-1.14,1.23-1.3-.04-.95.65-1.85.84-2.07-.01,0-.04.01-.05.01,0,0,.13-.92.79-1.33-.18-.92.33-1.93.46-2.17-.01.01-.04.01-.05.03,0,0-.05-1.17.78-1.66-.34-.88.04-1.98.14-2.26-.03,0-.04.01-.05.03,0,0-.28-1.62,1.08-2.04.93-.29,1.76.13,2.19.44Z"/>
            <g>
              <g>
                <g>
                  <g class="cls-14">
                    <path class="cls-1" d="M2.95,19.12c.15.77.51,1.34,1.29,1.52-.84.4-1.73-.78-1.29-1.52h0Z"/>
                  </g>
                  <ellipse class="cls-2" cx="3.45" cy="19.99" rx=".29" ry=".41" transform="translate(-9.74 4.58) rotate(-30.78)"/>
                  <ellipse class="cls-2" cx="4.04" cy="20.03" rx=".16" ry=".23" transform="translate(-9.68 4.89) rotate(-30.78)"/>
                </g>
                <g>
                  <g class="cls-14">
                    <path class="cls-1" d="M4.25,21.24c.59.53,1.21.54,1.85.11-.25.89-1.73.8-1.85-.11h0Z"/>
                  </g>
                  <ellipse class="cls-2" cx="5.13" cy="21.49" rx=".31" ry=".38" transform="translate(-16.89 23.25) rotate(-81.15)"/>
                  <ellipse class="cls-2" cx="5.59" cy="21.06" rx=".18" ry=".21" transform="translate(-16.08 23.33) rotate(-81.15)"/>
                </g>
              </g>
              <g>
                <g class="cls-14">
                  <path class="cls-1" d="M6.04,22.12c.15.77.51,1.34,1.29,1.52-.84.4-1.73-.78-1.29-1.52h0Z"/>
                </g>
                <ellipse class="cls-2" cx="6.54" cy="22.99" rx=".29" ry=".41" transform="translate(-10.84 6.59) rotate(-30.78)"/>
                <ellipse class="cls-2" cx="7.14" cy="23.03" rx=".16" ry=".23" transform="translate(-10.78 6.89) rotate(-30.78)"/>
              </g>
              <g>
                <g class="cls-14">
                  <path class="cls-1" d="M7.71,24.34c.59.53,1.21.54,1.85.11-.25.89-1.73.8-1.85-.11h0Z"/>
                </g>
                <ellipse class="cls-2" cx="8.59" cy="24.58" rx=".31" ry=".38" transform="translate(-17.02 29.29) rotate(-81.15)"/>
                <ellipse class="cls-2" cx="9.05" cy="24.15" rx=".18" ry=".21" transform="translate(-16.21 29.37) rotate(-81.15)"/>
              </g>
              <g>
                <g class="cls-14">
                  <path class="cls-1" d="M9.91,25.24c.34.7.84,1.1,1.63,1.01-.64.68-1.88-.17-1.63-1.01h0Z"/>
                </g>
                <ellipse class="cls-2" cx="10.61" cy="25.9" rx=".3" ry=".4" transform="translate(-15.51 15.85) rotate(-46.69)"/>
                <ellipse class="cls-2" cx="11.18" cy="25.73" rx=".17" ry=".22" transform="translate(-15.21 16.22) rotate(-46.69)"/>
              </g>
              <g>
                <g class="cls-14">
                  <path class="cls-1" d="M11.82,27.14c.59.53,1.21.54,1.85.11-.25.89-1.73.8-1.85-.11h0Z"/>
                </g>
                <ellipse class="cls-2" cx="12.7" cy="27.38" rx=".31" ry=".38" transform="translate(-16.31 35.72) rotate(-81.15)"/>
                <ellipse class="cls-2" cx="13.16" cy="26.95" rx=".18" ry=".21" transform="translate(-15.5 35.81) rotate(-81.15)"/>
              </g>
              <g>
                <g class="cls-14">
                  <path class="cls-1" d="M14,27.83c.23.74.66,1.25,1.46,1.31-.77.53-1.81-.52-1.46-1.31h0Z"/>
                </g>
                <ellipse class="cls-2" cx="14.6" cy="28.61" rx=".29" ry=".41" transform="translate(-14.35 14.69) rotate(-37.29)"/>
                <ellipse class="cls-2" cx="15.19" cy="28.56" rx=".16" ry=".23" transform="translate(-14.2 15.04) rotate(-37.29)"/>
              </g>
              <g>
                <g class="cls-14">
                  <path class="cls-1" d="M16.19,29.65c.66.45,1.27.33,1.85-.17-.13.9-1.6,1.07-1.85.17h0Z"/>
                </g>
                <ellipse class="cls-2" cx="17.09" cy="29.76" rx=".38" ry=".31" transform="translate(-2.22 1.39) rotate(-4.37)"/>
                <ellipse class="cls-2" cx="17.49" cy="29.26" rx=".21" ry=".18" transform="translate(-2.18 1.42) rotate(-4.37)"/>
              </g>
              <g>
                <g class="cls-14">
                  <path class="cls-1" d="M18.51,30.26c.42.66.97.96,1.73.76-.53.77-1.88.12-1.73-.76h0Z"/>
                </g>
                <ellipse class="cls-2" cx="19.28" cy="30.8" rx=".3" ry=".39" transform="translate(-17.01 29.05) rotate(-55.18)"/>
                <ellipse class="cls-2" cx="19.84" cy="30.55" rx=".17" ry=".22" transform="translate(-16.57 29.39) rotate(-55.18)"/>
              </g>
              <g>
                <g class="cls-14">
                  <path class="cls-1" d="M21.63,31.19c.66.45,1.27.33,1.85-.17-.13.9-1.6,1.07-1.85.17h0Z"/>
                </g>
                <ellipse class="cls-2" cx="22.53" cy="31.31" rx=".38" ry=".31" transform="translate(-2.32 1.81) rotate(-4.37)"/>
                <ellipse class="cls-2" cx="22.94" cy="30.81" rx=".21" ry=".18" transform="translate(-2.28 1.84) rotate(-4.37)"/>
              </g>
              <g>
                <g class="cls-14">
                  <path class="cls-1" d="M24.55,31.77c.8.15,1.28-.32,1.65-.97.21.85-1.04,1.69-1.65.97h0Z"/>
                </g>
                <ellipse class="cls-2" cx="25.42" cy="31.47" rx=".39" ry=".3" transform="translate(-13.91 21.99) rotate(-37.52)"/>
                <ellipse class="cls-2" cx="25.62" cy="30.83" rx=".22" ry=".17" transform="translate(-13.48 21.98) rotate(-37.52)"/>
              </g>
              <g>
                <g class="cls-14">
                  <path class="cls-1" d="M27.13,31.8c.82.02,1.23-.52,1.52-1.21.3.81-.81,1.83-1.52,1.21h0Z"/>
                </g>
                <ellipse class="cls-2" cx="27.96" cy="31.37" rx=".4" ry=".3" transform="translate(-14.02 29.4) rotate(-45.6)"/>
                <ellipse class="cls-2" cx="28.09" cy="30.71" rx=".22" ry=".17" transform="translate(-13.51 29.29) rotate(-45.6)"/>
              </g>
              <g>
                <g class="cls-14">
                  <path class="cls-1" d="M29.83,31.57c.8.15,1.28-.32,1.65-.97.21.85-1.04,1.69-1.65.97h0Z"/>
                </g>
                <ellipse class="cls-2" cx="30.7" cy="31.28" rx=".39" ry=".3" transform="translate(-12.7 25.16) rotate(-37.52)"/>
                <ellipse class="cls-2" cx="30.9" cy="30.64" rx=".22" ry=".17" transform="translate(-12.27 25.16) rotate(-37.52)"/>
              </g>
              <g>
                <g class="cls-14">
                  <path class="cls-1" d="M32.4,31.37c.81-.12,1.14-.74,1.34-1.47.39.77-.53,1.94-1.34,1.47h0Z"/>
                </g>
                <ellipse class="cls-2" cx="33.17" cy="30.81" rx=".41" ry=".29" transform="translate(-11.27 39.44) rotate(-53.88)"/>
                <ellipse class="cls-2" cx="33.2" cy="30.13" rx=".23" ry=".16" transform="translate(-10.71 39.2) rotate(-53.88)"/>
              </g>
              <g>
                <g class="cls-14">
                  <path class="cls-1" d="M35,30.75c.82.02,1.23-.52,1.52-1.22.3.81-.81,1.83-1.52,1.22h0Z"/>
                </g>
                <ellipse class="cls-2" cx="35.83" cy="30.33" rx=".4" ry=".3" transform="translate(-10.9 34.74) rotate(-45.65)"/>
                <ellipse class="cls-2" cx="35.96" cy="29.66" rx=".22" ry=".17" transform="translate(-10.39 34.64) rotate(-45.65)"/>
              </g>
              <g>
                <g class="cls-14">
                  <path class="cls-1" d="M37.38,29.93c.82-.06,1.19-.64,1.43-1.36.35.79-.66,1.89-1.43,1.36h0Z"/>
                </g>
                <ellipse class="cls-2" cx="38.17" cy="29.43" rx=".4" ry=".29" transform="translate(-8.87 39.93) rotate(-50.22)"/>
                <ellipse class="cls-2" cx="38.25" cy="28.75" rx=".23" ry=".16" transform="translate(-8.32 39.75) rotate(-50.22)"/>
              </g>
              <g>
                <g class="cls-14">
                  <path class="cls-1" d="M39.92,29.16c.82.02,1.23-.52,1.52-1.22.3.81-.81,1.83-1.52,1.22h0Z"/>
                </g>
                <ellipse class="cls-2" cx="40.75" cy="28.74" rx=".4" ry=".3" transform="translate(-8.29 37.79) rotate(-45.65)"/>
                <ellipse class="cls-2" cx="40.88" cy="28.07" rx=".22" ry=".17" transform="translate(-7.77 37.68) rotate(-45.65)"/>
              </g>
              <g>
                <g class="cls-14">
                  <path class="cls-1" d="M42.32,28.41c.7-.44.85-1.13.82-1.91.59.63.1,2.01-.82,1.91h0Z"/>
                </g>
                <ellipse class="cls-2" cx="42.86" cy="27.58" rx=".42" ry=".28" transform="translate(2.29 58.43) rotate(-70.01)"/>
                <ellipse class="cls-2" cx="42.7" cy="26.92" rx=".24" ry=".16" transform="translate(2.8 57.84) rotate(-70.01)"/>
              </g>
              <g>
                <g class="cls-14">
                  <path class="cls-1" d="M44.78,27.15c.63-.53.72-1.24.59-2.02.66.56.32,1.98-.59,2.02h0Z"/>
                </g>
                <ellipse class="cls-2" cx="45.22" cy="26.24" rx=".43" ry=".28" transform="translate(8.5 63.46) rotate(-75.51)"/>
                <ellipse class="cls-2" cx="44.98" cy="25.62" rx=".24" ry=".15" transform="translate(8.92 62.76) rotate(-75.51)"/>
              </g>
              <g>
                <g class="cls-14">
                  <path class="cls-1" d="M46.52,25.55c.37-.73.31-1.43-.1-2.12.84.31.91,1.75.1,2.12h0Z"/>
                </g>
                <ellipse class="cls-2" cx="46.65" cy="24.52" rx=".27" ry=".43" transform="translate(-.27 .52) rotate(-.63)"/>
                <ellipse class="cls-2" cx="46.22" cy="24.04" rx=".15" ry=".24" transform="translate(-.26 .51) rotate(-.63)"/>
              </g>
              <g>
                <g class="cls-14">
                  <path class="cls-1" d="M47.68,23.73c.53-.63.56-1.34.32-2.1.74.47.57,1.91-.32,2.1h0Z"/>
                </g>
                <ellipse class="cls-2" cx="48" cy="22.76" rx=".43" ry=".27" transform="translate(18.61 67.01) rotate(-81.77)"/>
                <ellipse class="cls-2" cx="47.68" cy="22.19" rx=".24" ry=".15" transform="translate(18.9 66.2) rotate(-81.77)"/>
              </g>
              <g>
                <g class="cls-14">
                  <path class="cls-1" d="M49.04,21.96c.26-.77.14-1.46-.38-2.08.89.18,1.13,1.6.38,2.08h0Z"/>
                </g>
                <ellipse class="cls-2" cx="49.02" cy="20.92" rx=".27" ry=".43" transform="translate(-2.15 6) rotate(-6.85)"/>
                <ellipse class="cls-2" cx="48.54" cy="20.53" rx=".15" ry=".24" transform="translate(-2.1 5.94) rotate(-6.85)"/>
              </g>
              <g>
                <g class="cls-14">
                  <path class="cls-1" d="M49.83,19.85c.38-.73.32-1.43-.09-2.12.84.31.91,1.76.09,2.12h0Z"/>
                </g>
                <ellipse class="cls-2" cx="49.96" cy="18.82" rx=".27" ry=".43" transform="translate(-.17 .45) rotate(-.52)"/>
                <ellipse class="cls-2" cx="49.53" cy="18.34" rx=".15" ry=".24" transform="translate(-.16 .45) rotate(-.52)"/>
              </g>
              <g>
                <g class="cls-14">
                  <path class="cls-1" d="M50.83,17.86c.11-.79-.09-1.46-.73-1.96.91-.01,1.38,1.36.73,1.96h0Z"/>
                </g>
                <ellipse class="cls-2" cx="50.64" cy="16.84" rx=".28" ry=".43" transform="translate(-2.62 13.46) rotate(-14.76)"/>
                <ellipse class="cls-2" cx="50.1" cy="16.56" rx=".15" ry=".24" transform="translate(-2.57 13.31) rotate(-14.76)"/>
              </g>
            </g>
          </g>
        </g>
      </g>
    </g>
  </g>
</svg>